<svg width="26" height="37" viewBox="0 0 26 37" fill="none" xmlns="http://www.w3.org/2000/svg">
  <path d="M15.2623 0.0338882L0.962734 3.99294C0.679132 4.07027 0.429677 4.24281 0.254998 4.48244C0.0803198 4.72207 -0.00929051 5.01469 0.000762402 5.31262V31.7063C-0.00929051 32.0042 0.0803198 32.2968 0.254998 32.5365C0.429677 32.7761 0.679132 32.9486 0.962734 33.026L15.2623 36.985C15.3741 37.005 15.4885 37.005 15.6003 36.985C15.8875 36.9841 16.1664 36.8867 16.3933 36.7079C16.5506 36.5849 16.6781 36.4271 16.766 36.2463C16.8538 36.0656 16.8998 35.8669 16.9003 35.6653V1.35357C16.8998 1.15203 16.8538 0.953281 16.766 0.772562C16.6781 0.591844 16.5506 0.433961 16.3933 0.311022C16.2389 0.178822 16.0564 0.0849472 15.86 0.0368427C15.6637 -0.0112618 15.4591 -0.0122734 15.2623 0.0338882ZM11.7004 19.8291C11.7004 20.1791 11.5635 20.5148 11.3197 20.7623C11.0759 21.0098 10.7452 21.1488 10.4005 21.1488C10.0557 21.1488 9.72504 21.0098 9.48125 20.7623C9.23746 20.5148 9.1005 20.1791 9.1005 19.8291V17.1898C9.1005 16.8398 9.23746 16.5041 9.48125 16.2566C9.72504 16.0091 10.0557 15.8701 10.4005 15.8701C10.7452 15.8701 11.0759 16.0091 11.3197 16.2566C11.5635 16.5041 11.7004 16.8398 11.7004 17.1898V19.8291Z" fill="white" />
  <path d="M23.4001 3.99294H19.5002V33.026H23.4001C24.0896 33.026 24.7509 32.7479 25.2385 32.2529C25.7261 31.7579 26 31.0866 26 30.3866V6.6323C26 5.9323 25.7261 5.26097 25.2385 4.76599C24.7509 4.27101 24.0896 3.99294 23.4001 3.99294Z" fill="white" />
</svg>