<svg width="27" height="35" viewBox="0 0 27 35" fill="none" xmlns="http://www.w3.org/2000/svg">
  <path d="M7.78196 26.4592C7.12611 26.4592 6.5154 26.1651 6.10658 25.6523L4.6714 23.8527L3.40872 23.2446L0.112005 29.8754C-0.0532627 30.2078 -0.0346466 30.6023 0.161291 30.9177C0.35676 31.2324 0.701023 31.4238 1.0714 31.4238H1.07381L4.1318 31.4169L5.97205 33.8591C6.17555 34.1292 6.49317 34.2858 6.82758 34.2858C6.8604 34.2858 6.89334 34.2843 6.92636 34.2812C7.29613 34.247 7.62185 34.0238 7.78712 33.6913L11.1318 26.964L10.0837 26.4592H7.78196Z" fill="white" />
  <path d="M26.0629 29.8754L22.7662 23.2446L21.5035 23.8527L20.0683 25.6524C19.6595 26.1651 19.0488 26.4592 18.3929 26.4592H16.0911L15.043 26.964L18.3877 33.6913C18.553 34.0238 18.8788 34.247 19.2485 34.2812C19.2815 34.2842 19.3144 34.2858 19.3472 34.2858C19.6816 34.2858 19.9993 34.1292 20.2028 33.8591L22.043 31.4169L25.101 31.4238H25.1034C25.4738 31.4238 25.8181 31.2325 26.0135 30.9177C26.2095 30.6023 26.2281 30.2078 26.0629 29.8754Z" fill="white" />
  <path d="M18.392 25.3878C18.7181 25.3878 19.0265 25.2393 19.2297 24.9844L20.8174 22.9935L23.1116 21.8887C23.4053 21.7472 23.6187 21.4797 23.6913 21.1618L24.2579 18.6792L25.8456 16.6884C26.0489 16.4334 26.125 16.0998 26.0524 15.7819L25.4858 13.2994L26.0524 10.8169C26.125 10.4989 26.0489 10.1654 25.8456 9.91038L24.2579 7.9196L23.6913 5.43703C23.6187 5.11915 23.4053 4.85163 23.1116 4.71013L20.8174 3.60529L19.2297 1.61444C19.0264 1.35951 18.7181 1.21105 18.392 1.21105H15.8457L13.5514 0.106071C13.2576 -0.0353571 12.9154 -0.0353571 12.6216 0.106071L10.3274 1.21092H7.78102C7.45497 1.21092 7.1466 1.35938 6.94337 1.61431L5.35571 3.60516L3.06151 4.71C2.76774 4.8515 2.55439 5.11902 2.4818 5.4369L1.91515 7.91946L0.327496 9.91024C0.124192 10.1652 0.0480541 10.4988 0.120643 10.8167L0.687228 13.2993L0.120643 15.7818C0.0481211 16.0997 0.124192 16.4333 0.327496 16.6882L1.91515 18.6791L2.4818 21.1617C2.55433 21.4795 2.76774 21.7471 3.06151 21.8885L5.35571 22.9934L6.94337 24.9842C7.14667 25.2392 7.45497 25.3876 7.78102 25.3876H10.3274L12.6216 26.4925C12.7685 26.5632 12.9275 26.5985 13.0865 26.5985C13.2454 26.5985 13.4045 26.5632 13.5513 26.4925L15.8455 25.3876H18.3919L18.392 25.3878ZM13.0865 22.6744C7.91716 22.6744 3.71154 18.4688 3.71154 13.2994C3.71154 8.13 7.91716 3.92437 13.0865 3.92437C18.2559 3.92437 22.4615 8.13 22.4615 13.2994C22.4615 18.4688 18.2559 22.6744 13.0865 22.6744Z" fill="white" />
  <path d="M13.0868 4.99585C8.50816 4.99585 4.7832 8.72081 4.7832 13.2994C4.7832 17.878 8.50816 21.603 13.0868 21.603C17.6654 21.603 21.3903 17.878 21.3903 13.2994C21.3903 8.72081 17.6654 4.99585 13.0868 4.99585ZM13.3086 15.7577C13.1006 15.9657 12.8263 16.0715 12.5508 16.0715C12.315 16.0715 12.0784 15.9941 11.8818 15.8368L9.20318 13.6939L10.5418 12.0207L12.4715 13.5645L15.5434 10.4925L17.0586 12.0077L13.3086 15.7577V15.7577Z" fill="white" />
</svg>