<svg width="36" height="36" viewBox="0 0 36 36" fill="none" xmlns="http://www.w3.org/2000/svg">
  <path d="M28.4998 25.3854L26.6398 33.9384C26.3775 35.1409 25.3046 36 24.0629 36H17.0872C14.2492 36 13.0286 34.949 11.4099 33.3888H9.43266V22.9439H10.7943C13.9183 20.8379 15.5911 17.8115 16.5177 14.7812C16.672 14.2798 17.1043 13.8947 17.6329 13.8555C20.1743 13.6662 22.0527 15.9836 21.4081 18.339C20.9652 19.9579 20.55 21.4072 19.7248 22.9426H26.508C27.8064 22.9439 28.7726 24.1294 28.4998 25.3854Z" fill="white" />
  <path d="M18.3552 0.218364L19.9449 3.40928C20.0029 3.52548 20.1137 3.60512 20.2428 3.6234L23.7979 4.1352C24.1222 4.18221 24.2513 4.5765 24.0167 4.80368L21.4437 7.28826C21.3501 7.37835 21.3079 7.5076 21.3303 7.63555L21.938 11.1424C21.9933 11.4623 21.6546 11.7065 21.3646 11.555L18.1839 9.89949C18.0692 9.83943 17.9308 9.83943 17.8161 9.89949L14.6354 11.555C14.3454 11.7065 14.0067 11.4623 14.062 11.1424L14.6697 7.63555C14.6921 7.50891 14.6486 7.37835 14.5563 7.28826L11.9833 4.80368C11.7487 4.5765 11.8778 4.18221 12.2021 4.1352L15.7572 3.6234C15.8863 3.60512 15.9971 3.52418 16.0551 3.40928L17.6448 0.218364C17.7911 -0.0727879 18.2102 -0.0727879 18.3552 0.218364Z" fill="white" />
  <path d="M30.2186 3.34139L31.8083 6.53231C31.8663 6.64851 31.977 6.72815 32.1062 6.74643L35.6613 7.25823C35.9856 7.30523 36.1147 7.69953 35.8801 7.9267L33.3084 10.41C33.2148 10.5001 33.1726 10.6293 33.195 10.7573L33.8027 14.2642C33.8581 14.584 33.5193 14.8282 33.2293 14.6767L30.0486 13.0212C29.9339 12.9611 29.7955 12.9611 29.6808 13.0212L26.5001 14.6767C26.2101 14.8282 25.8714 14.584 25.9267 14.2642L26.5344 10.7573C26.5568 10.6306 26.5133 10.5001 26.421 10.41L23.848 7.9254C23.6134 7.69822 23.7425 7.30393 24.0668 7.25693L27.6219 6.74512C27.751 6.72685 27.8618 6.6459 27.9198 6.531L29.5095 3.34009C29.6545 3.05024 30.0736 3.05024 30.2186 3.34139Z" fill="white" />
  <path d="M6.49186 3.34139L8.08155 6.53231C8.13955 6.64851 8.25027 6.72815 8.37945 6.74643L11.9345 7.25823C12.2588 7.30523 12.388 7.69953 12.1533 7.9267L9.58161 10.41C9.48802 10.5001 9.44584 10.6293 9.46825 10.7573L10.0759 14.2642C10.1313 14.584 9.79251 14.8282 9.50252 14.6767L6.32181 13.0212C6.20713 12.9611 6.06873 12.9611 5.95405 13.0212L2.77334 14.6767C2.48335 14.8282 2.14458 14.584 2.19994 14.2642L2.80761 10.7573C2.83002 10.6306 2.78652 10.5001 2.69425 10.41L0.119898 7.9267C-0.114734 7.69953 0.0144454 7.30523 0.338711 7.25823L3.89377 6.74643C4.02427 6.72815 4.135 6.6472 4.19299 6.53231L5.78269 3.34139C5.92768 3.05024 6.34686 3.05024 6.49186 3.34139Z" fill="white" />
  <path d="M2.84189 21.6383H6.79635C7.16016 21.6383 7.45543 21.9307 7.45543 22.2911V34.0416C7.45543 34.4019 7.16016 34.6944 6.79635 34.6944H2.84189C2.47808 34.6944 2.18281 34.4019 2.18281 34.0416V22.2911C2.18281 21.9307 2.47808 21.6383 2.84189 21.6383Z" fill="white" />
</svg>