<svg width="36" height="34" viewBox="0 0 36 34" fill="none" xmlns="http://www.w3.org/2000/svg">
  <path d="M9.07198 6.30385L12.1937 8.00495C12.5944 8.22196 12.7421 8.71899 12.5241 9.11801C12.4468 9.25802 12.3343 9.37002 12.1937 9.44703L9.07198 11.1411C8.93136 11.2181 8.81887 11.3301 8.74153 11.4701L7.03304 14.5783C6.81508 14.9773 6.3159 15.1243 5.91514 14.9073C5.77452 14.8303 5.66203 14.7183 5.58469 14.5783L3.88323 11.4701C3.8059 11.3301 3.6934 11.2181 3.55279 11.1411L0.431105 9.44703C0.0303483 9.23002 -0.117299 8.73299 0.100656 8.33397C0.177995 8.19396 0.290488 8.08195 0.431105 8.00495L3.55279 6.30385C3.6934 6.22685 3.8059 6.11484 3.88323 5.97484L5.59172 2.87367C5.80968 2.47464 6.3159 2.32764 6.71665 2.55165C6.85024 2.62865 6.96273 2.74066 7.04007 2.87367L8.74856 5.97484C8.81887 6.11484 8.93136 6.22685 9.07198 6.30385Z" fill="white" />
  <path d="M32.3088 22.8948L35.4305 24.5959C35.8313 24.8129 35.9789 25.3099 35.7609 25.7089C35.6836 25.8489 35.5711 25.9609 35.4305 26.0379L32.3088 27.739C32.1682 27.816 32.0557 27.928 31.9784 28.068L30.2699 31.1762C30.0519 31.5752 29.5457 31.7222 29.145 31.5052C29.0043 31.4282 28.8918 31.3162 28.8145 31.1762L27.1201 28.061C27.0427 27.921 26.9302 27.809 26.7896 27.732L23.6679 26.0309C23.2672 25.8139 23.1195 25.3099 23.3375 24.9109C23.4148 24.7709 23.5273 24.6589 23.6679 24.5819L26.7896 22.8808C26.9302 22.8038 27.0427 22.6918 27.1201 22.5517L28.8286 19.4506C29.0465 19.0516 29.5527 18.9045 29.9535 19.1216C30.0941 19.1986 30.2066 19.3106 30.2839 19.4506L31.9924 22.5587C32.0557 22.7058 32.1682 22.8178 32.3088 22.8948Z" fill="white" />
  <path d="M18.7956 2.74766L20.8416 3.86072C21.1017 4.00773 21.2001 4.33675 21.0595 4.59576C21.0103 4.68677 20.933 4.75677 20.8416 4.81277L18.7956 5.92583C18.7042 5.97484 18.6269 6.05184 18.5776 6.14285L17.4597 8.17996C17.3121 8.43897 16.9816 8.53698 16.7215 8.39697C16.6301 8.34797 16.5598 8.27096 16.5035 8.17996L15.3856 6.14285C15.3364 6.05184 15.2591 5.97484 15.1677 5.92583L13.1217 4.81277C12.8616 4.67277 12.7632 4.34375 12.9038 4.07773C12.953 3.98673 13.0303 3.90972 13.1217 3.86072L15.1677 2.74766C15.2591 2.69866 15.3364 2.62165 15.3856 2.53065L16.5035 0.493536C16.6512 0.234521 16.9816 0.136516 17.2418 0.276524C17.3332 0.325526 17.4035 0.402531 17.4597 0.493536L18.5776 2.53065C18.6269 2.62165 18.7042 2.69866 18.7956 2.74766Z" fill="white" />
  <path d="M35.1985 3.67871L32.3088 0.801553C31.2401 -0.262506 29.5035 -0.269506 28.4278 0.794552C28.4278 0.794552 28.4278 0.794552 28.4208 0.801553L2.65987 26.458C1.59119 27.522 1.58416 29.2511 2.65987 30.3222L5.54954 33.1993C6.61822 34.2634 8.35483 34.2704 9.43055 33.1993L35.1985 7.54292C36.2672 6.47886 36.2672 4.74977 35.1985 3.67871ZM25.1515 13.3812L22.5641 10.8051L30.1925 3.20268L32.7799 5.77882L25.1515 13.3812Z" fill="white" />
</svg>