<svg width="38" height="32" viewBox="0 0 38 32" fill="none" xmlns="http://www.w3.org/2000/svg">
  <path d="M31.5632 10.4921L30.5512 11.5106C28.9305 7.02854 25.4872 3.38633 21.1715 1.58256L21.9238 0.828407C23.0349 -0.285491 24.8139 -0.266741 25.8983 0.828407L31.5634 6.50764C32.6565 7.59572 32.6735 9.37903 31.5632 10.4921Z" fill="white" />
  <path d="M15.0097 9.78662C11.0697 9.78662 7.86429 12.9996 7.86429 16.9489C7.86429 20.8985 11.0697 24.1119 15.0097 24.1119C18.9494 24.1119 22.1547 20.8986 22.1547 16.9489C22.1547 12.9997 18.9494 9.78662 15.0097 9.78662Z" fill="white" />
  <path d="M15.5646 1.91299C7.0493 1.59983 0 8.42667 0 16.9487C0 25.2479 6.73535 32 15.01 32H26.8754C28.6086 32 30.0161 30.5889 30.0161 28.8514V17.2909C30.0161 9.10054 23.5329 2.20064 15.5646 1.91299ZM15.0097 25.6669C10.2147 25.6669 6.3132 21.7559 6.3132 16.9489C6.3132 12.1423 10.2147 8.23173 15.0097 8.23173C19.8048 8.23173 23.7058 12.1423 23.7058 16.9489C23.7058 21.7559 19.8048 25.6669 15.0097 25.6669Z" fill="white" />
  <path d="M38 21.2052V28.9563C38 29.1601 37.9175 29.3642 37.7713 29.5044C37.6317 29.6444 37.4378 29.7337 37.2245 29.7337H31.4819C31.5401 29.4461 31.5672 29.1546 31.5672 28.8514V23.3199H36.449V21.2053C36.449 20.7778 36.7941 20.4278 37.2245 20.4278C37.651 20.4278 38 20.7777 38 21.2052Z" fill="white" />
</svg>