<svg width="38" height="32" viewBox="0 0 38 32" fill="none" xmlns="http://www.w3.org/2000/svg">
  <path fill-rule="evenodd" clip-rule="evenodd" d="M19.4893 0.00845337C16.4335 -0.0951768 13.3461 0.753811 10.6806 2.56564C7.68687 4.60272 5.5947 7.61091 4.63102 10.9738C4.3649 10.9407 4.04623 10.9553 3.66783 11.0643C2.25505 11.4725 1.19248 12.6513 0.714711 13.6896C0.0950379 15.0426 -0.166305 16.8321 0.109371 18.6794C0.383136 20.5209 1.1471 22.0389 2.10264 22.9813C3.06106 23.9241 4.14322 24.2307 5.21821 24.0005C6.81875 23.6527 7.61233 23.3924 7.38826 21.8739L6.30323 14.5133C6.52205 10.5296 8.54734 6.77944 11.9348 4.47331C16.4688 1.38922 22.4133 1.58674 26.7381 4.96762C29.7466 7.31657 31.4934 10.8361 31.695 14.5308L30.9363 19.6797C29.244 24.3956 25.0487 27.6621 20.194 28.1258H16.9614C16.1272 28.1258 15.4555 28.8098 15.4555 29.6583V30.467C15.4555 31.3159 16.1272 32 16.9614 32H21.0373C21.871 32 22.5399 31.3159 22.5399 30.467V30.0442C26.2006 29.1344 29.396 26.8433 31.4767 23.6483L32.7824 24.001C33.845 24.2817 34.9401 23.9241 35.898 22.9817C36.8535 22.0389 37.617 20.5214 37.8913 18.6799C38.1679 16.8325 37.8989 15.046 37.2864 13.6901C36.6715 12.3341 35.7556 11.473 34.6983 11.164C34.2554 11.0341 33.7748 10.9864 33.3624 10.9738C32.491 7.93299 30.6969 5.16758 28.1112 3.1485C25.569 1.16201 22.5452 0.110624 19.4893 0.00845337Z" fill="white" />
  <path fill-rule="evenodd" clip-rule="evenodd" d="M24.2599 13.2507C25.3373 13.2507 26.2106 14.1401 26.213 15.2401C26.2106 16.3373 25.3373 17.2291 24.2599 17.2291C23.1796 17.2291 22.3039 16.3373 22.3039 15.2401C22.3039 14.1406 23.1801 13.2507 24.2599 13.2507ZM18.9996 13.2507C20.0794 13.2507 20.9527 14.1401 20.9527 15.2401C20.9527 16.3373 20.0794 17.2291 18.9996 17.2291C17.9189 17.2291 17.0455 16.3373 17.0455 15.2401C17.0455 14.1406 17.9189 13.2507 18.9996 13.2507ZM13.7412 13.2507C14.8186 13.2507 15.6944 14.1401 15.6944 15.2401C15.6944 16.3373 14.8186 17.2291 13.7412 17.2291C12.6614 17.2291 11.7876 16.3373 11.7876 15.2401C11.7876 14.1406 12.6614 13.2507 13.7412 13.2507ZM18.9996 4.70635C13.2711 4.70635 8.65484 9.25245 8.65484 15.2401C8.65484 18.116 9.72266 20.6576 11.4622 22.5225L10.845 25.3404C10.6414 26.2677 11.273 26.8915 12.0915 26.4273L14.7938 24.8923C16.078 25.4601 17.4984 25.7739 18.9996 25.7739C24.73 25.7739 29.3434 21.2307 29.3434 15.2401C29.3434 9.25245 24.73 4.70635 18.9996 4.70635Z" fill="white" />
</svg>