<svg width="66" height="34" viewBox="0 0 66 34" fill="none" xmlns="http://www.w3.org/2000/svg">
  <path fill-rule="evenodd" clip-rule="evenodd" d="M5.78199 8.4064C5.18448 8.4064 4.70003 7.91686 4.70003 7.31306C4.70003 6.70927 5.18448 6.21973 5.78199 6.21973H16.0629C16.6604 6.21973 17.1449 6.70927 17.1449 7.31306C17.1449 7.91686 16.6604 8.4064 16.0629 8.4064H5.78199ZM3.43197 18.1424C2.83446 18.1424 2.35001 17.6529 2.35001 17.0491C2.35001 16.4453 2.83446 15.9558 3.43197 15.9558H16.4742C17.0717 15.9558 17.5561 16.4453 17.5561 17.0491C17.5561 17.6529 17.0717 18.1424 16.4742 18.1424H3.43197ZM1.08196 13.2744C0.484447 13.2744 0 12.7848 0 12.181C0 11.5772 0.484447 11.0877 1.08196 11.0877H11.9505C12.548 11.0877 13.0325 11.5772 13.0325 12.181C13.0325 12.7848 12.548 13.2744 11.9505 13.2744H1.08196Z" fill="#B00004" />
  <path fill-rule="evenodd" clip-rule="evenodd" d="M49.3974 6.14538H59.8697C60.8682 6.14538 61.72 6.68344 62.0811 7.54253L65.8399 16.4863C65.9511 16.7509 66.0003 16.9936 66.0003 17.2773V28.3427C66.0003 29.1337 65.3619 29.779 64.5791 29.779C50.0183 29.779 35.4577 29.779 20.897 29.779C19.8533 29.779 19.002 28.9186 19.002 27.864V1.91498C19.002 0.860321 19.8533 0 20.897 0H47.5025C48.5462 0 49.3976 0.860321 49.3976 1.91498V6.14538H49.3974Z" fill="#E1E1E1" />
  <path fill-rule="evenodd" clip-rule="evenodd" d="M62.706 16.5626L59.5652 9.08936H52.3096V16.5626H62.706Z" fill="white" />
  <path fill-rule="evenodd" clip-rule="evenodd" d="M52.3096 9.08936H53.4524V16.5626H52.3096V9.08936Z" fill="#BDBDBD" />
  <path d="M61.4569 30.1919C61.6851 28.0893 60.1833 26.1979 58.1026 25.9673C56.0218 25.7367 54.1501 27.2543 53.9219 29.3569C53.6938 31.4596 55.1956 33.351 57.2763 33.5815C59.357 33.8121 61.2287 32.2945 61.4569 30.1919Z" fill="#828282" />
  <path fill-rule="evenodd" clip-rule="evenodd" d="M57.6974 27.9316C56.687 27.9316 55.8691 28.7581 55.8691 29.7792C55.8691 30.8003 56.687 31.6268 57.6974 31.6268C58.7079 31.6268 59.5258 30.8004 59.5258 29.7792C59.5258 28.7581 58.7079 27.9316 57.6974 27.9316Z" fill="#E1E1E1" />
  <path fill-rule="evenodd" clip-rule="evenodd" d="M19.002 27.8641V1.91498C19.002 0.860321 19.8533 0 20.897 0H47.5025C48.5462 0 49.3976 0.860321 49.3976 1.91498V29.7791H20.897C19.8533 29.7791 19.002 28.9189 19.002 27.8641Z" fill="#B00004" />
  <path fill-rule="evenodd" clip-rule="evenodd" d="M19.002 27.8641V1.91498C19.002 0.860321 19.8533 0 20.897 0H23.1825C22.1388 0 21.2875 0.860321 21.2875 1.91498V27.8641C21.2875 28.9188 22.1388 29.7791 23.1825 29.7791H20.897C19.8533 29.7791 19.002 28.9189 19.002 27.8641Z" fill="#6B0002" />
  <path fill-rule="evenodd" clip-rule="evenodd" d="M19.001 10.1001H49.397V14.2653H19.001V10.1001Z" fill="#E56164" />
  <path fill-rule="evenodd" clip-rule="evenodd" d="M19.001 10.1001H21.2865V14.2653H19.001V10.1001Z" fill="black" />
  <path d="M30.4348 33.6094C32.5281 33.6094 34.225 31.8946 34.225 29.7793C34.225 27.664 32.5281 25.9492 30.4348 25.9492C28.3415 25.9492 26.6445 27.664 26.6445 29.7793C26.6445 31.8946 28.3415 33.6094 30.4348 33.6094Z" fill="#828282" />
  <path fill-rule="evenodd" clip-rule="evenodd" d="M30.4347 27.9316C29.4241 27.9316 28.6064 28.7581 28.6064 29.7792C28.6064 30.8003 29.4243 31.6268 30.4347 31.6268C31.4451 31.6268 32.2631 30.8004 32.2631 29.7792C32.2631 28.7581 31.4452 27.9316 30.4347 27.9316Z" fill="#E1E1E1" />
</svg>