<svg width="47" height="34" viewBox="0 0 47 34" fill="none" xmlns="http://www.w3.org/2000/svg">
  <path fill-rule="evenodd" clip-rule="evenodd" d="M30.3964 6.14538H40.8687C41.8672 6.14538 42.719 6.68344 43.0801 7.54253L46.839 16.4863C46.9501 16.7509 46.9994 16.9936 46.9994 17.2773V28.3427C46.9994 29.1337 46.3609 29.779 45.5781 29.779C31.0174 29.779 16.4568 29.779 1.89603 29.779C0.852344 29.779 0.000976562 28.9186 0.000976562 27.864V1.91498C0.000976562 0.860321 0.852344 0 1.89603 0H28.5015C29.5452 0 30.3966 0.860321 30.3966 1.91498V6.14538H30.3964Z" fill="#E1E1E1" />
  <path fill-rule="evenodd" clip-rule="evenodd" d="M43.705 16.5626L40.5642 9.08936H33.3086V16.5626H43.705Z" fill="white" />
  <path fill-rule="evenodd" clip-rule="evenodd" d="M33.3086 9.08936H34.4514V16.5626H33.3086V9.08936Z" fill="#BDBDBD" />
  <path d="M42.4559 30.1919C42.6841 28.0893 41.1823 26.1979 39.1016 25.9673C37.0208 25.7367 35.1491 27.2543 34.9209 29.3569C34.6928 31.4596 36.1946 33.351 38.2753 33.5815C40.356 33.8121 42.2278 32.2945 42.4559 30.1919Z" fill="#828282" />
  <path fill-rule="evenodd" clip-rule="evenodd" d="M38.6964 27.9316C37.686 27.9316 36.8682 28.7581 36.8682 29.7792C36.8682 30.8003 37.686 31.6268 38.6964 31.6268C39.707 31.6268 40.5248 30.8004 40.5248 29.7792C40.5248 28.7581 39.707 27.9316 38.6964 27.9316Z" fill="#E1E1E1" />
  <path fill-rule="evenodd" clip-rule="evenodd" d="M0.000976562 27.8641V1.91498C0.000976562 0.860321 0.852342 0 1.89603 0H28.5015C29.5452 0 30.3966 0.860321 30.3966 1.91498V29.7791H1.89603C0.852342 29.7791 0.000976562 28.9189 0.000976562 27.8641Z" fill="#B00004" />
  <path fill-rule="evenodd" clip-rule="evenodd" d="M0.000976562 27.8641V1.91498C0.000976562 0.860321 0.852342 0 1.89603 0H4.18153C3.13784 0 2.28648 0.860321 2.28648 1.91498V27.8641C2.28648 28.9188 3.13784 29.7791 4.18153 29.7791H1.89603C0.852342 29.7791 0.000976562 28.9189 0.000976562 27.8641Z" fill="#6B0002" />
  <path fill-rule="evenodd" clip-rule="evenodd" d="M0 10.1001H30.396V14.2653H0V10.1001Z" fill="#E56164" />
  <path fill-rule="evenodd" clip-rule="evenodd" d="M0 10.1001H2.2855V14.2653H0V10.1001Z" fill="black" />
  <path d="M11.4338 33.6094C13.5271 33.6094 15.224 31.8946 15.224 29.7793C15.224 27.664 13.5271 25.9492 11.4338 25.9492C9.3405 25.9492 7.64355 27.664 7.64355 29.7793C7.64355 31.8946 9.3405 33.6094 11.4338 33.6094Z" fill="#828282" />
  <path fill-rule="evenodd" clip-rule="evenodd" d="M11.4337 27.9316C10.4232 27.9316 9.60547 28.7581 9.60547 29.7792C9.60547 30.8003 10.4233 31.6268 11.4337 31.6268C12.4441 31.6268 13.2621 30.8004 13.2621 29.7792C13.2621 28.7581 12.4443 27.9316 11.4337 27.9316Z" fill="#E1E1E1" />
</svg>