<svg width="33" height="42" viewBox="0 0 33 42" fill="none" xmlns="http://www.w3.org/2000/svg">
  <path d="M16.2702 42L15.6403 41.6269C15.4818 41.5331 11.7155 39.2862 7.89821 35.6308C5.63481 33.4634 3.82594 31.248 2.52164 29.0461C0.848367 26.2213 0 23.4047 0 20.6745V6.47046L16.2702 0L32.5406 6.47046V20.6744C32.5406 22.1763 32.2818 23.7183 31.7715 25.2573L23.215 36.9381C19.9232 39.8256 17.0221 41.5547 16.9002 41.6268L16.2702 42Z" fill="#E56164" />
  <path d="M0 19.6646V20.6746C0 23.4048 0.848449 26.2214 2.52164 29.0462C3.82594 31.2481 5.63481 33.4635 7.89821 35.6309C11.7155 39.2864 15.4818 41.5332 15.6403 41.627L16.2702 42.0002L16.9002 41.6271C17.0221 41.5549 19.9232 39.8259 23.215 36.9384L31.7715 25.2575C32.2818 23.7185 32.5406 22.1766 32.5406 20.6746V19.6646H0Z" fill="#B00004" />
  <path d="M16.2705 42V0L32.5408 6.47046V20.6744C32.5408 22.1763 32.2821 23.7183 31.7718 25.2573L23.2153 36.9381C19.9234 39.8256 17.0223 41.5547 16.9004 41.6268L16.2705 42Z" fill="#B00004" />
  <path d="M16.2705 19.6646V42.0002L16.9004 41.6271C17.0223 41.5549 19.9234 39.8259 23.2153 36.9384L31.7718 25.2575C32.2821 23.7185 32.5408 22.1766 32.5408 20.6746V19.6646H16.2705Z" fill="#6B0002" />
</svg>