<svg width="24" height="24" viewBox="0 0 24 24" fill="none" xmlns="http://www.w3.org/2000/svg">
  <path d="M7 23.3333C6.35833 23.3333 5.80903 23.1049 5.35208 22.6479C4.89514 22.191 4.66667 21.6417 4.66667 21C4.66667 20.3583 4.89514 19.809 5.35208 19.3521C5.80903 18.8951 6.35833 18.6667 7 18.6667C7.64167 18.6667 8.19097 18.8951 8.64792 19.3521C9.10486 19.809 9.33333 20.3583 9.33333 21C9.33333 21.6417 9.10486 22.191 8.64792 22.6479C8.19097 23.1049 7.64167 23.3333 7 23.3333ZM18.6667 23.3333C18.025 23.3333 17.4757 23.1049 17.0188 22.6479C16.5618 22.191 16.3333 21.6417 16.3333 21C16.3333 20.3583 16.5618 19.809 17.0188 19.3521C17.4757 18.8951 18.025 18.6667 18.6667 18.6667C19.3083 18.6667 19.8576 18.8951 20.3146 19.3521C20.7715 19.809 21 20.3583 21 21C21 21.6417 20.7715 22.191 20.3146 22.6479C19.8576 23.1049 19.3083 23.3333 18.6667 23.3333ZM6.00833 4.66667L8.80833 10.5H16.975L20.1833 4.66667H6.00833ZM4.9 2.33333H22.1083C22.5556 2.33333 22.8958 2.53264 23.1292 2.93125C23.3625 3.32986 23.3722 3.73333 23.1583 4.14167L19.0167 11.6083C18.8028 11.9972 18.516 12.2986 18.1563 12.5125C17.7965 12.7264 17.4028 12.8333 16.975 12.8333H8.28333L7 15.1667H21V17.5H7C6.125 17.5 5.46389 17.116 5.01667 16.3479C4.56944 15.5799 4.55 14.8167 4.95833 14.0583L6.53333 11.2L2.33333 2.33333H0V0H3.79167L4.9 2.33333Z" fill="#898989" />
</svg>