<svg width="21" height="24" viewBox="0 0 21 24" fill="none" xmlns="http://www.w3.org/2000/svg">
  <path d="M4.65 23.25C3.375 23.25 2.175 22.725 1.35 21.9C-0.45 20.025 -0.45 17.1 1.35 15.225L11.25 5.25C11.85 4.65 12.6 4.35 13.35 4.35C14.175 4.35 14.925 4.65 15.45 5.25C16.05 5.85 16.35 6.6 16.35 7.35C16.35 8.1 16.05 8.925 15.45 9.45L8.7 16.2L7.875 15.375L14.625 8.625C15 8.25 15.15 7.8 15.15 7.275C15.15 6.75 14.925 6.3 14.625 5.925C14.25 5.55 13.8 5.4 13.275 5.4C12.75 5.4 12.3 5.625 11.925 5.925L2.1 15.975C0.675 17.4 0.675 19.65 2.1 21.075C2.775 21.75 3.675 22.125 4.65 22.125C5.625 22.125 6.525 21.75 7.2 21.075L18.15 10.125C20.175 8.1 20.175 4.8 18.15 2.775C17.175 1.8 15.825 1.275 14.475 1.275C13.05 1.275 11.775 1.8 10.8 2.775L3.45 10.125L2.625 9.3L9.975 1.875C11.175 0.675 12.75 0 14.475 0C16.2 0 17.775 0.675 18.975 1.875C21.45 4.35 21.45 8.4 18.975 10.875L7.95 21.825C7.05 22.725 5.85 23.25 4.65 23.25Z" fill="#898989" />
</svg>