<svg width="74" height="32" viewBox="0 0 74 32" fill="none" xmlns="http://www.w3.org/2000/svg">
  <path d="M0 28.0295V27.1469C0 26.9079 0.0827452 26.7057 0.248236 26.5402C0.419855 26.3747 0.625186 26.292 0.864228 26.292H1.58135L3.29142 19.333C3.88596 16.9183 5.87798 15.7109 9.26747 15.7109H14.2322C14.4712 15.7109 14.6735 15.7937 14.839 15.9591C15.0106 16.1246 15.0964 16.3269 15.0964 16.5659V28.0478C15.0964 28.2869 15.0106 28.4891 14.839 28.6546C14.6735 28.8139 14.4712 28.8936 14.2322 28.8936H0.864228C0.625186 28.8936 0.419855 28.8109 0.248236 28.6454C0.0827452 28.4738 0 28.2685 0 28.0295ZM5.12101 26.292H11.6395V18.3125H8.89052C8.30823 18.3125 7.82709 18.4719 7.44707 18.7906C7.06706 19.1093 6.80656 19.5536 6.66559 20.1235L5.12101 26.292Z" fill="#B00004" />
  <path d="M18.1948 28.2317C17.3857 27.6679 16.9812 26.8712 16.9812 25.8415C16.9812 24.8119 17.3857 24.0213 18.1948 23.4698C19.0099 22.9182 20.0581 22.6424 21.3391 22.6424H24.3823C24.3823 21.9254 24.2321 21.4259 23.9318 21.144C23.6314 20.862 23.1043 20.7211 22.3504 20.7211C21.6026 20.7211 21.0755 20.908 20.7691 21.2819C20.4687 21.6496 20.0979 21.8334 19.6566 21.8334H18.2867C18.1212 21.8334 17.9833 21.7813 17.873 21.6771C17.7688 21.5668 17.7167 21.432 17.7167 21.2727C17.7167 19.5137 19.3869 18.6343 22.7274 18.6343C24.1861 18.6343 25.3568 18.9622 26.2394 19.6179C27.122 20.2676 27.5634 21.2757 27.5634 22.6424V28.3328C27.5634 28.4983 27.5113 28.6331 27.4071 28.7373C27.3029 28.8415 27.168 28.8936 27.0025 28.8936H25.2281C25.0626 28.8936 24.9278 28.8415 24.8236 28.7373C24.7194 28.627 24.6673 28.4922 24.6673 28.3328V28.0478C23.6988 28.7404 22.5803 29.0836 21.3115 29.0775C20.0489 29.0775 19.0099 28.7955 18.1948 28.2317ZM21.5597 24.7292C21.1307 24.7292 20.7905 24.8334 20.5392 25.0418C20.294 25.2501 20.1714 25.5198 20.1714 25.8507C20.1714 26.1817 20.3002 26.4544 20.5576 26.6689C20.815 26.8834 21.1797 26.9907 21.6517 26.9907C22.5956 26.9907 23.5058 26.7149 24.3823 26.1633V24.7292H21.5597Z" fill="#B00004" />
  <path d="M29.8343 31.4308V19.3881C29.8343 19.2226 29.8864 19.0878 29.9905 18.9836C30.1009 18.8733 30.2357 18.8181 30.3951 18.8181H32.1695C32.3289 18.8181 32.4606 18.8733 32.5648 18.9836C32.6752 19.0878 32.7303 19.2226 32.7303 19.3881V19.6639C33.6988 18.9775 34.8235 18.6343 36.1045 18.6343C37.3855 18.6343 38.4551 19.0878 39.3132 19.9948C40.1713 20.8957 40.6003 22.1889 40.6003 23.8743C40.6003 25.5535 40.156 26.8405 39.2672 27.7353C38.3785 28.6301 37.1802 29.0775 35.6724 29.0775C34.894 29.0775 34.0083 28.9212 33.0153 28.6086V31.4308C33.0153 31.5963 32.9602 31.7311 32.8499 31.8353C32.7457 31.9456 32.6139 32.0008 32.4545 32.0008H30.3951C30.2357 32.0008 30.1009 31.9456 29.9905 31.8353C29.8864 31.7311 29.8343 31.5963 29.8343 31.4308ZM33.0153 26.485C33.806 26.7363 34.4711 26.862 35.0104 26.862C35.8501 26.862 36.4447 26.6229 36.794 26.1449C37.1495 25.6669 37.3273 24.9039 37.3273 23.8559C37.3273 22.8079 37.1587 22.0479 36.8216 21.576C36.4906 21.098 35.9911 20.859 35.323 20.859C34.6611 20.859 33.8918 21.1348 33.0153 21.6863V26.485Z" fill="#B00004" />
  <path d="M43.1654 27.7537C42.2093 26.8712 41.7312 25.5719 41.7312 23.8559C41.7312 22.1337 42.2093 20.8345 43.1654 19.9581C44.1216 19.0755 45.4946 18.6343 47.2843 18.6343C49.0802 18.6343 50.4562 19.0755 51.4124 19.9581C52.3685 20.8345 52.8466 22.1337 52.8466 23.8559C52.8466 25.5719 52.3685 26.8712 51.4124 27.7537C50.4562 28.6362 49.0802 29.0775 47.2843 29.0775C45.4946 29.0775 44.1216 28.6362 43.1654 27.7537ZM45.4915 21.4657C45.1115 21.9621 44.9215 22.7558 44.9215 23.8467C44.9215 24.9376 45.1115 25.7343 45.4915 26.2368C45.8715 26.7394 46.4691 26.9907 47.2843 26.9907C48.1056 26.9907 48.7063 26.7394 49.0863 26.2368C49.4725 25.7343 49.6655 24.9376 49.6655 23.8467C49.6655 22.7558 49.4725 21.9621 49.0863 21.4657C48.7063 20.9693 48.1056 20.7211 47.2843 20.7211C46.4691 20.7211 45.8715 20.9693 45.4915 21.4657Z" fill="#B00004" />
  <path d="M54.5475 28.3328V19.3881C54.5475 19.2226 54.5996 19.0878 54.7038 18.9836C54.8141 18.8733 54.949 18.8181 55.1083 18.8181H58.271C58.6327 18.8181 58.9085 19.0449 59.0985 19.4984L61.3418 24.9774L63.5851 19.4984C63.7751 19.0449 64.0509 18.8181 64.4126 18.8181H67.5753C67.7408 18.8181 67.8756 18.8733 67.9798 18.9836C68.0901 19.0878 68.1453 19.2226 68.1453 19.3881V28.3328C68.1453 28.4983 68.0901 28.6331 67.9798 28.7373C67.8756 28.8415 67.7408 28.8936 67.5753 28.8936H65.5802C65.4147 28.8936 65.2799 28.8415 65.1757 28.7373C65.0715 28.627 65.0194 28.4922 65.0194 28.3328V22.5872L62.6657 28.2501C62.4757 28.6791 62.1846 28.8936 61.7923 28.8936H60.8913C60.5051 28.8936 60.2171 28.6791 60.0271 28.2501L57.6734 22.5872V28.3328C57.6734 28.4983 57.6183 28.6331 57.5079 28.7373C57.4037 28.8415 57.2689 28.8936 57.1034 28.8936H55.1083C54.9428 28.8936 54.808 28.8415 54.7038 28.7373C54.5996 28.6331 54.5475 28.4983 54.5475 28.3328Z" fill="#B00004" />
  <path d="M3.80371 12.3185V11.436C3.80371 11.197 3.88646 10.9947 4.05195 10.8293C4.22357 10.6638 4.4289 10.5811 4.66794 10.5811H5.38506L7.09513 3.62201C7.68967 1.20734 9.68169 0 13.0712 0H18.0359C18.2749 0 18.4772 0.0827363 18.6427 0.248209C18.8143 0.413682 18.9001 0.615926 18.9001 0.854942V12.3369C18.9001 12.5759 18.8143 12.7782 18.6427 12.9436C18.4772 13.103 18.2749 13.1827 18.0359 13.1827H4.66794C4.4289 13.1827 4.22357 13.0999 4.05195 12.9344C3.88646 12.7628 3.80371 12.5575 3.80371 12.3185ZM8.92472 10.5811H15.4432V2.6016H12.6942C12.1119 2.6016 11.6308 2.76094 11.2508 3.07963C10.8708 3.39832 10.6103 3.84264 10.4693 4.4126L8.92472 10.5811Z" fill="#B00004" />
  <path d="M21.3549 12.6219V3.67717C21.3549 3.5117 21.407 3.37687 21.5112 3.27268C21.6215 3.16237 21.7564 3.10721 21.9157 3.10721H27.4137C28.5844 3.10721 29.5313 3.33397 30.2546 3.78749C30.984 4.241 31.3487 4.92434 31.3487 5.83751C31.3487 6.74454 30.9717 7.43095 30.2178 7.89672C31.2904 8.43604 31.8268 9.23583 31.8268 10.2961C31.8268 11.3563 31.4805 12.104 30.7878 12.5392C30.0952 12.9682 29.1023 13.1827 27.809 13.1827H21.9157C21.7564 13.1827 21.6215 13.1306 21.5112 13.0264C21.407 12.9161 21.3549 12.7812 21.3549 12.6219ZM24.536 11.1326H27.5884C27.9255 11.1326 28.1829 11.0376 28.3607 10.8477C28.5445 10.6577 28.6365 10.4064 28.6365 10.0938C28.6365 9.78127 28.5445 9.53 28.3607 9.34001C28.1829 9.15003 27.9255 9.05503 27.5884 9.05503H24.536V11.1326ZM24.536 7.04178H27.2298C27.5056 7.04178 27.7293 6.95598 27.901 6.78438C28.0787 6.60665 28.1676 6.37989 28.1676 6.1041C28.1676 5.82832 28.0787 5.60462 27.901 5.43302C27.7293 5.25529 27.5056 5.16642 27.2298 5.16642H24.536V7.04178Z" fill="#B00004" />
  <path d="M34.2815 12.0243C33.3376 11.1296 32.8657 9.84256 32.8657 8.16332C32.8657 6.47795 33.3407 5.18481 34.2907 4.2839C35.2408 3.37687 36.5586 2.92335 38.2441 2.92335C39.9297 2.92335 41.2444 3.36461 42.1883 4.24713C43.1322 5.12352 43.6042 6.38296 43.6042 8.02542V8.54942C43.6042 8.71489 43.549 8.85279 43.4387 8.9631C43.3345 9.06729 43.1996 9.11938 43.0341 9.11938H36.1111C36.1724 9.8732 36.3869 10.4217 36.7547 10.7649C37.1286 11.1081 37.7231 11.2797 38.5383 11.2797C39.3535 11.2797 39.9113 11.0959 40.2116 10.7281C40.5119 10.3604 40.8828 10.1735 41.3241 10.1674H42.694C42.8595 10.1674 42.9943 10.2225 43.0985 10.3328C43.2088 10.437 43.264 10.5719 43.264 10.7373C43.264 12.4963 41.5876 13.3726 38.2349 13.3665C36.5432 13.3665 35.2254 12.9191 34.2815 12.0243ZM36.0927 7.17968H40.3679C40.3066 5.73332 39.5956 5.01014 38.2349 5.01014C36.8803 5.01014 36.1663 5.73332 36.0927 7.17968Z" fill="#B00004" />
  <path d="M45.2958 15.7199V3.67717C45.2958 3.5117 45.3479 3.37687 45.4521 3.27268C45.5625 3.16237 45.6973 3.10721 45.8567 3.10721H47.6311C47.7905 3.10721 47.9222 3.16237 48.0264 3.27268C48.1368 3.37687 48.1919 3.5117 48.1919 3.67717V3.95296C49.1603 3.26655 50.2851 2.92335 51.5661 2.92335C52.8471 2.92335 53.9167 3.37687 54.7748 4.2839C55.6329 5.18481 56.0619 6.47795 56.0619 8.16332C56.0619 9.84256 55.6175 11.1296 54.7288 12.0243C53.8401 12.9191 52.6418 13.3665 51.134 13.3665C50.3556 13.3665 49.4699 13.2102 48.4769 12.8977V15.7199C48.4769 15.8854 48.4218 16.0202 48.3114 16.1244C48.2072 16.2347 48.0755 16.2899 47.9161 16.2899H45.8567C45.6973 16.2899 45.5625 16.2347 45.4521 16.1244C45.3479 16.0202 45.2958 15.8854 45.2958 15.7199ZM48.4769 10.7741C49.2676 11.0254 49.9326 11.151 50.472 11.151C51.3117 11.151 51.9063 10.912 52.2556 10.434C52.6111 9.95594 52.7889 9.19293 52.7889 8.14493C52.7889 7.09694 52.6203 6.33699 52.2832 5.86509C51.9522 5.38705 51.4527 5.14804 50.7846 5.14804C50.1226 5.14804 49.3534 5.42383 48.4769 5.9754V10.7741Z" fill="#B00004" />
  <path d="M57.7628 12.6219V3.67717C57.7628 3.5117 57.8149 3.37687 57.9191 3.27268C58.0294 3.16237 58.1643 3.10721 58.3236 3.10721H60.2451C60.4106 3.10721 60.5455 3.16237 60.6497 3.27268C60.76 3.37687 60.8152 3.5117 60.8152 3.67717V9.71692L64.0514 3.7691C64.1495 3.57911 64.2997 3.42283 64.5019 3.30026C64.7042 3.17156 64.9003 3.10721 65.0903 3.10721H67.6646C67.8301 3.10721 67.965 3.16237 68.0692 3.27268C68.1795 3.37687 68.2346 3.5117 68.2346 3.67717V12.6219C68.2346 12.7874 68.1795 12.9222 68.0692 13.0264C67.965 13.1306 67.8301 13.1827 67.6646 13.1827H65.7431C65.5776 13.1827 65.4428 13.1306 65.3386 13.0264C65.2344 12.9161 65.1823 12.7812 65.1823 12.6219V6.59133L61.946 12.5208C61.8479 12.6985 61.6978 12.8548 61.4955 12.9896C61.2932 13.1183 61.0971 13.1827 60.9071 13.1827H58.3236C58.1581 13.1827 58.0233 13.1306 57.9191 13.0264C57.8149 12.9222 57.7628 12.7874 57.7628 12.6219Z" fill="#B00004" />
  <path d="M71.6727 0C71.2187 0 70.775 0.134604 70.3976 0.38679C70.0201 0.638978 69.726 0.997419 69.5523 1.41679C69.3786 1.83616 69.3331 2.29763 69.4217 2.74283C69.5102 3.18803 69.7288 3.59697 70.0498 3.91796C70.3708 4.23892 70.7797 4.45751 71.2249 4.54607C71.6701 4.63462 72.1316 4.58918 72.5509 4.41546C72.9703 4.24175 73.3288 3.94759 73.5809 3.57016C73.8331 3.19273 73.9677 2.749 73.9677 2.29508C73.9677 1.68639 73.7259 1.10263 73.2955 0.672213C72.8651 0.241803 72.2813 0 71.6727 0ZM71.6727 4.13115C71.3095 4.13115 70.9545 4.02346 70.6526 3.82172C70.3507 3.61996 70.1153 3.33321 69.9763 2.99772C69.8374 2.66223 69.801 2.29304 69.8719 1.93689C69.9427 1.58072 70.1176 1.25357 70.3744 0.996788C70.6311 0.74001 70.9583 0.565141 71.3145 0.494296C71.6706 0.423452 72.0398 0.45981 72.3753 0.598777C72.7108 0.737747 72.9975 0.973078 73.1993 1.27502C73.401 1.57696 73.5087 1.93193 73.5087 2.29508C73.5087 2.78203 73.3153 3.24905 72.971 3.59339C72.6266 3.93769 72.1596 4.13115 71.6727 4.13115Z" fill="#B00004" />
  <path d="M72.5906 1.83606C72.5906 1.65345 72.5181 1.47832 72.389 1.3492C72.2599 1.22008 72.0847 1.14754 71.9021 1.14754H70.7546V3.44262H71.2136V2.52458H71.5487L72.1615 3.44262H72.7123L72.0811 2.49704C72.2267 2.45784 72.3554 2.37196 72.4475 2.25255C72.5395 2.13314 72.5898 1.98682 72.5906 1.83606ZM71.9021 2.06557H71.2136V1.60655H71.9021C71.963 1.60655 72.0214 1.63073 72.0644 1.67377C72.1074 1.71681 72.1316 1.77519 72.1316 1.83606C72.1316 1.89693 72.1074 1.95531 72.0644 1.99835C72.0214 2.04138 71.963 2.06557 71.9021 2.06557Z" fill="#B00004" />
</svg>