<svg width="200" height="200" viewBox="0 0 200 200" fill="none" xmlns="http://www.w3.org/2000/svg">
  <circle cx="100" cy="100" r="99" fill="#F5F5F5" stroke="#DCDCDC" stroke-width="2" />
  <path d="M30 118.672V117.013C30 116.564 30.1555 116.184 30.4665 115.873C30.789 115.562 31.1749 115.406 31.6241 115.406H32.9717L36.1853 102.329C37.3025 97.7913 41.0459 95.5225 47.4155 95.5225H56.7452C57.1945 95.5225 57.5746 95.6779 57.8855 95.9889C58.2081 96.2999 58.3693 96.6799 58.3693 97.1291V118.706C58.3693 119.155 58.2081 119.535 57.8855 119.846C57.5746 120.146 57.1945 120.295 56.7452 120.295H31.6241C31.1749 120.295 30.789 120.14 30.4665 119.829C30.1555 119.507 30 119.121 30 118.672ZM39.6234 115.406H51.873V100.411H46.7071C45.6129 100.411 44.7087 100.711 43.9946 101.31C43.2805 101.909 42.791 102.744 42.526 103.815L39.6234 115.406Z" fill="#B00004" />
  <path d="M64.1918 119.052C62.6714 117.992 61.9112 116.495 61.9112 114.56C61.9112 112.625 62.6714 111.139 64.1918 110.103C65.7237 109.066 67.6933 108.548 70.1006 108.548H75.8194C75.8194 107.201 75.5372 106.262 74.9728 105.732C74.4084 105.202 73.4178 104.938 72.0011 104.938C70.5959 104.938 69.6053 105.289 69.0294 105.991C68.465 106.682 67.7682 107.028 66.9388 107.028H64.3645C64.0535 107.028 63.7944 106.93 63.5871 106.734C63.3912 106.527 63.2933 106.274 63.2933 105.974C63.2933 102.669 66.432 101.016 72.7095 101.016C75.4508 101.016 77.6508 101.632 79.3094 102.865C80.968 104.085 81.7973 105.98 81.7973 108.548V119.242C81.7973 119.553 81.6994 119.806 81.5036 120.002C81.3078 120.198 81.0544 120.295 80.7434 120.295H77.4089C77.0979 120.295 76.8445 120.198 76.6487 120.002C76.4529 119.794 76.355 119.541 76.355 119.242V118.706C74.5351 120.008 72.433 120.652 70.0488 120.641C67.676 120.641 65.7237 120.111 64.1918 119.052ZM70.5152 112.47C69.709 112.47 69.0697 112.665 68.5975 113.057C68.1367 113.449 67.9064 113.955 67.9064 114.577C67.9064 115.199 68.1483 115.712 68.632 116.115C69.1158 116.518 69.8011 116.719 70.688 116.719C72.4618 116.719 74.1723 116.201 75.8194 115.165V112.47H70.5152Z" fill="#B00004" />
  <path d="M86.0648 125.063V102.433C86.0648 102.122 86.1627 101.868 86.3585 101.673C86.5658 101.465 86.8192 101.362 87.1187 101.362H90.4532C90.7527 101.362 91.0003 101.465 91.1962 101.673C91.4035 101.868 91.5071 102.122 91.5071 102.433V102.951C93.327 101.661 95.4406 101.016 97.8479 101.016C100.255 101.016 102.265 101.868 103.878 103.573C105.49 105.266 106.297 107.696 106.297 110.863C106.297 114.019 105.461 116.437 103.791 118.119C102.121 119.8 99.8694 120.641 97.0359 120.641C95.5731 120.641 93.9087 120.347 92.0427 119.76V125.063C92.0427 125.374 91.9391 125.628 91.7318 125.824C91.5359 126.031 91.2883 126.135 90.9888 126.135H87.1187C86.8192 126.135 86.5658 126.031 86.3585 125.824C86.1627 125.628 86.0648 125.374 86.0648 125.063ZM92.0427 115.769C93.5286 116.241 94.7783 116.478 95.7919 116.478C97.3699 116.478 98.4872 116.028 99.1437 115.13C99.8118 114.232 100.146 112.798 100.146 110.828C100.146 108.859 99.829 107.431 99.1955 106.544C98.5736 105.646 97.6348 105.197 96.3793 105.197C95.1354 105.197 93.6898 105.715 92.0427 106.751V115.769Z" fill="#B00004" />
  <path d="M111.117 118.153C109.32 116.495 108.422 114.053 108.422 110.828C108.422 107.592 109.32 105.151 111.117 103.504C112.914 101.845 115.494 101.016 118.857 101.016C122.232 101.016 124.818 101.845 126.615 103.504C128.411 105.151 129.31 107.592 129.31 110.828C129.31 114.053 128.411 116.495 126.615 118.153C124.818 119.812 122.232 120.641 118.857 120.641C115.494 120.641 112.914 119.812 111.117 118.153ZM115.488 106.337C114.774 107.27 114.417 108.761 114.417 110.811C114.417 112.861 114.774 114.358 115.488 115.303C116.202 116.247 117.325 116.719 118.857 116.719C120.401 116.719 121.529 116.247 122.243 115.303C122.969 114.358 123.332 112.861 123.332 110.811C123.332 108.761 122.969 107.27 122.243 106.337C121.529 105.404 120.401 104.938 118.857 104.938C117.325 104.938 116.202 105.404 115.488 106.337Z" fill="#B00004" />
  <path d="M132.506 119.242V102.433C132.506 102.122 132.604 101.868 132.8 101.673C133.007 101.465 133.261 101.362 133.56 101.362H139.503C140.183 101.362 140.701 101.788 141.058 102.64L145.274 112.936L149.49 102.64C149.847 101.788 150.365 101.362 151.045 101.362H156.988C157.299 101.362 157.552 101.465 157.748 101.673C157.956 101.868 158.059 102.122 158.059 102.433V119.242C158.059 119.553 157.956 119.806 157.748 120.002C157.552 120.198 157.299 120.295 156.988 120.295H153.239C152.928 120.295 152.675 120.198 152.479 120.002C152.283 119.794 152.185 119.541 152.185 119.242V108.444L147.762 119.086C147.405 119.892 146.858 120.295 146.121 120.295H144.427C143.702 120.295 143.16 119.892 142.803 119.086L138.38 108.444V119.242C138.38 119.553 138.277 119.806 138.069 120.002C137.874 120.198 137.62 120.295 137.309 120.295H133.56C133.249 120.295 132.996 120.198 132.8 120.002C132.604 119.806 132.506 119.553 132.506 119.242Z" fill="#B00004" />
  <path d="M37.1465 89.1491V87.4906C37.1465 87.0415 37.302 86.6614 37.613 86.3505C37.9355 86.0395 38.3213 85.884 38.7705 85.884H40.1182L43.3318 72.8065C44.449 68.2688 48.1924 66 54.562 66H63.8917C64.3409 66 64.721 66.1555 65.032 66.4664C65.3545 66.7774 65.5158 67.1575 65.5158 67.6066V89.1836C65.5158 89.6328 65.3545 90.0128 65.032 90.3238C64.721 90.6232 64.3409 90.773 63.8917 90.773H38.7705C38.3213 90.773 37.9355 90.6175 37.613 90.3065C37.302 89.9841 37.1465 89.5982 37.1465 89.1491ZM46.7699 85.884H59.0195V70.8889H53.8536C52.7594 70.8889 51.8552 71.1884 51.1411 71.7873C50.427 72.3862 49.9374 73.2211 49.6725 74.2922L46.7699 85.884Z" fill="#B00004" />
  <path d="M70.1288 89.7192V72.9102C70.1288 72.5992 70.2267 72.3458 70.4225 72.1501C70.6299 71.9427 70.8833 71.8391 71.1827 71.8391H81.5145C83.7145 71.8391 85.4941 72.2652 86.8532 73.1175C88.2239 73.9697 88.9092 75.2539 88.9092 76.9699C88.9092 78.6744 88.2009 79.9643 86.7841 80.8396C88.7998 81.8531 89.8076 83.356 89.8076 85.3485C89.8076 87.3409 89.1569 88.746 87.8553 89.5637C86.5538 90.3699 84.6878 90.773 82.2575 90.773H71.1827C70.8833 90.773 70.6299 90.6751 70.4225 90.4793C70.2267 90.272 70.1288 90.0186 70.1288 89.7192ZM76.1068 86.9205H81.8428C82.4763 86.9205 82.9601 86.742 83.2941 86.385C83.6397 86.028 83.8124 85.5558 83.8124 84.9684C83.8124 84.3811 83.6397 83.9089 83.2941 83.5518C82.9601 83.1948 82.4763 83.0163 81.8428 83.0163H76.1068V86.9205ZM76.1068 79.233H81.169C81.6873 79.233 82.1077 79.0717 82.4302 78.7493C82.7643 78.4153 82.9313 77.9891 82.9313 77.4709C82.9313 76.9526 82.7643 76.5323 82.4302 76.2098C82.1077 75.8758 81.6873 75.7088 81.169 75.7088H76.1068V79.233Z" fill="#B00004" />
  <path d="M94.4207 88.5963C92.6469 86.9148 91.76 84.4962 91.76 81.3406C91.76 78.1734 92.6526 75.7433 94.438 74.0504C96.2233 72.3458 98.6997 71.4936 101.867 71.4936C105.035 71.4936 107.505 72.3228 109.279 73.9812C111.053 75.6282 111.94 77.9949 111.94 81.0815V82.0662C111.94 82.3771 111.836 82.6362 111.629 82.8435C111.433 83.0393 111.18 83.1372 110.869 83.1372H97.8589C97.974 84.5538 98.3772 85.5846 99.0683 86.2295C99.7709 86.8745 100.888 87.197 102.42 87.197C103.952 87.197 105 86.8514 105.565 86.1604C106.129 85.4694 106.826 85.1181 107.655 85.1066H110.229C110.54 85.1066 110.794 85.2103 110.99 85.4176C111.197 85.6134 111.301 85.8667 111.301 86.1777C111.301 89.4831 108.15 91.13 101.85 91.1185C98.6709 91.1185 96.1945 90.2777 94.4207 88.5963ZM97.8243 79.4921H105.858C105.743 76.7741 104.407 75.4151 101.85 75.4151C99.3044 75.4151 97.9625 76.7741 97.8243 79.4921Z" fill="#B00004" />
  <path d="M115.119 95.541V72.9102C115.119 72.5992 115.217 72.3458 115.413 72.1501C115.62 71.9427 115.873 71.8391 116.173 71.8391H119.507C119.807 71.8391 120.054 71.9427 120.25 72.1501C120.458 72.3458 120.561 72.5992 120.561 72.9102V73.4284C122.381 72.1385 124.495 71.4936 126.902 71.4936C129.309 71.4936 131.319 72.3458 132.932 74.0504C134.544 75.7433 135.351 78.1734 135.351 81.3406C135.351 84.4962 134.516 86.9148 132.845 88.5963C131.175 90.2777 128.923 91.1185 126.09 91.1185C124.627 91.1185 122.963 90.8248 121.097 90.2374V95.541C121.097 95.8519 120.993 96.1053 120.786 96.3011C120.59 96.5084 120.342 96.6121 120.043 96.6121H116.173C115.873 96.6121 115.62 96.5084 115.413 96.3011C115.217 96.1053 115.119 95.8519 115.119 95.541ZM121.097 86.2468C122.583 86.719 123.832 86.9551 124.846 86.9551C126.424 86.9551 127.541 86.5059 128.198 85.6076C128.866 84.7093 129.2 83.2754 129.2 81.306C129.2 79.3366 128.883 77.9085 128.25 77.0217C127.628 76.1234 126.689 75.6742 125.433 75.6742C124.189 75.6742 122.744 76.1925 121.097 77.229V86.2468Z" fill="#B00004" />
  <path d="M138.547 89.7192V72.9102C138.547 72.5992 138.645 72.3458 138.841 72.1501C139.048 71.9427 139.301 71.8391 139.601 71.8391H143.212C143.523 71.8391 143.776 71.9427 143.972 72.1501C144.179 72.3458 144.283 72.5992 144.283 72.9102V84.2601L150.365 73.0829C150.549 72.7259 150.831 72.4322 151.211 72.2019C151.591 71.96 151.96 71.8391 152.317 71.8391H157.154C157.465 71.8391 157.719 71.9427 157.915 72.1501C158.122 72.3458 158.226 72.5992 158.226 72.9102V89.7192C158.226 90.0301 158.122 90.2835 157.915 90.4793C157.719 90.6751 157.465 90.773 157.154 90.773H153.544C153.233 90.773 152.979 90.6751 152.783 90.4793C152.588 90.272 152.49 90.0186 152.49 89.7192V78.3865L146.408 89.5291C146.224 89.8631 145.942 90.1568 145.561 90.4102C145.181 90.652 144.813 90.773 144.456 90.773H139.601C139.29 90.773 139.036 90.6751 138.841 90.4793C138.645 90.2835 138.547 90.0301 138.547 89.7192Z" fill="#B00004" />
  <path d="M164.686 66C163.833 66 163 66.2529 162.29 66.7269C161.581 67.2008 161.028 67.8744 160.702 68.6624C160.375 69.4505 160.29 70.3177 160.456 71.1543C160.623 71.991 161.034 72.7595 161.637 73.3627C162.24 73.9658 163.008 74.3766 163.845 74.543C164.682 74.7094 165.549 74.624 166.337 74.2976C167.125 73.9711 167.799 73.4183 168.272 72.7091C168.746 71.9998 168.999 71.1659 168.999 70.3129C168.999 69.1691 168.545 68.0721 167.736 67.2632C166.927 66.4544 165.83 66 164.686 66ZM164.686 73.7633C164.004 73.7633 163.337 73.5609 162.77 73.1818C162.202 72.8027 161.76 72.2638 161.499 71.6333C161.238 71.0029 161.169 70.3091 161.302 69.6398C161.435 68.9705 161.764 68.3557 162.247 67.8732C162.729 67.3906 163.344 67.062 164.013 66.9289C164.683 66.7958 165.376 66.8641 166.007 67.1252C166.637 67.3864 167.176 67.8286 167.555 68.396C167.934 68.9634 168.137 69.6305 168.137 70.3129C168.137 71.228 167.773 72.1057 167.126 72.7527C166.479 73.3997 165.601 73.7633 164.686 73.7633Z" fill="#B00004" />
  <path d="M166.412 69.4503C166.412 69.1072 166.275 68.7781 166.033 68.5354C165.79 68.2928 165.461 68.1565 165.118 68.1565H162.961V72.4694H163.824V70.7442H164.453L165.605 72.4694H166.64L165.454 70.6925C165.728 70.6188 165.969 70.4574 166.142 70.233C166.315 70.0086 166.41 69.7337 166.412 69.4503ZM165.118 69.8816H163.824V69.019H165.118C165.232 69.019 165.342 69.0645 165.423 69.1454C165.503 69.2263 165.549 69.336 165.549 69.4503C165.549 69.5647 165.503 69.6744 165.423 69.7553C165.342 69.8362 165.232 69.8816 165.118 69.8816Z" fill="#B00004" />
  <path fill-rule="evenodd" clip-rule="evenodd" d="M83.7269 132.789H30V132.05H83.7269V132.789Z" fill="#4E4E4E" />
  <path d="M86.4375 133.938V130.654C86.4375 130.585 86.4598 130.526 86.5044 130.477C86.5489 130.428 86.6034 130.403 86.6678 130.403H88.5572C89.556 130.403 90.0553 130.894 90.0553 131.875C90.0553 132.855 89.556 133.344 88.5572 133.344H87.3711V133.938C87.3711 134.006 87.3479 134.065 87.3017 134.114C87.2571 134.162 87.2027 134.186 87.1383 134.186H86.6727C86.6084 134.186 86.5531 134.162 86.5068 134.114C86.4606 134.065 86.4375 134.006 86.4375 133.938ZM87.3711 132.598H88.2749C88.5522 132.598 88.7627 132.549 88.9064 132.45C89.05 132.35 89.1218 132.158 89.1218 131.875C89.1218 131.59 89.05 131.399 88.9064 131.3C88.7627 131.2 88.5522 131.15 88.2749 131.15H87.3711V132.598Z" fill="#4E4E4E" />
  <path d="M90.147 133.943L90.7685 131.432C90.9369 130.748 91.485 130.405 92.4128 130.403H93.7475C93.8086 130.403 93.8589 130.428 93.8985 130.477C93.9398 130.526 93.9604 130.584 93.9604 130.649V133.943C93.9604 134.012 93.9373 134.07 93.8911 134.117C93.8449 134.163 93.7896 134.186 93.7252 134.186H93.2597C93.192 134.186 93.1358 134.163 93.0913 134.117C93.0483 134.07 93.0269 134.01 93.0269 133.938V133.273H91.2662L91.1003 133.938C91.0838 134.01 91.0467 134.07 90.9889 134.117C90.9311 134.163 90.87 134.186 90.8057 134.186H90.3178C90.2535 134.186 90.2072 134.166 90.1792 134.128C90.1511 134.087 90.1371 134.052 90.1371 134.022C90.1387 133.992 90.142 133.966 90.147 133.943ZM91.4495 132.527H93.0269V131.15H92.3211C92.1627 131.15 92.024 131.198 91.9051 131.295C91.7879 131.39 91.7087 131.518 91.6674 131.68L91.4495 132.527Z" fill="#4E4E4E" />
  <path d="M94.6687 133.943V130.654C94.6687 130.582 94.6909 130.522 94.7355 130.475C94.7801 130.427 94.8362 130.403 94.9039 130.403H97.6922C97.7566 130.403 97.8111 130.428 97.8556 130.477C97.9019 130.526 97.925 130.585 97.925 130.654V130.902C97.925 130.97 97.9027 131.029 97.8581 131.079C97.8152 131.126 97.7615 131.15 97.6972 131.15H95.6022V131.788H96.8255C97.2267 131.788 97.5519 131.889 97.8012 132.091C98.0504 132.292 98.1751 132.591 98.1751 132.988C98.1751 133.384 98.0504 133.683 97.8012 133.885C97.5519 134.085 97.2267 134.186 96.8255 134.186H94.8915C94.8288 134.186 94.776 134.163 94.733 134.117C94.6901 134.07 94.6687 134.012 94.6687 133.943ZM95.6022 133.439H96.8255C97.1028 133.439 97.2415 133.288 97.2415 132.986C97.2415 132.683 97.1028 132.532 96.8255 132.532H95.6022V133.439Z" fill="#4E4E4E" />
  <path d="M101.956 133.795C101.62 134.11 101.124 134.267 100.471 134.267C99.8185 134.267 99.3232 134.11 98.9848 133.795C98.6464 133.479 98.4772 132.979 98.4772 132.295C98.4772 131.611 98.6464 131.111 98.9848 130.796C99.3232 130.482 99.8185 130.324 100.471 130.324C101.124 130.324 101.62 130.482 101.956 130.796C102.295 131.111 102.464 131.611 102.464 132.295C102.464 132.979 102.295 133.479 101.956 133.795ZM101.28 131.353C101.114 131.142 100.844 131.036 100.471 131.036C100.099 131.036 99.8292 131.142 99.6608 131.353C99.4941 131.564 99.4107 131.879 99.4107 132.297C99.4107 132.714 99.4941 133.028 99.6608 133.239C99.8292 133.448 100.099 133.553 100.471 133.553C100.844 133.553 101.114 133.448 101.28 133.239C101.447 133.028 101.53 132.714 101.53 132.297C101.53 131.879 101.447 131.564 101.28 131.353Z" fill="#4E4E4E" />
  <path d="M102.595 130.902V130.654C102.595 130.582 102.618 130.522 102.662 130.475C102.707 130.427 102.763 130.403 102.83 130.403H105.973C106.041 130.403 106.097 130.427 106.141 130.475C106.186 130.522 106.208 130.582 106.208 130.654V130.902C106.208 130.974 106.186 131.034 106.141 131.081C106.097 131.127 106.041 131.15 105.973 131.15H104.868V133.943C104.868 134.012 104.845 134.07 104.799 134.117C104.755 134.163 104.7 134.186 104.636 134.186H104.168C104.103 134.186 104.048 134.163 104.002 134.117C103.957 134.07 103.935 134.012 103.935 133.943V131.15H102.83C102.763 131.15 102.707 131.127 102.662 131.081C102.618 131.034 102.595 130.974 102.595 130.902Z" fill="#4E4E4E" />
  <path d="M106.124 133.943L106.745 131.432C106.914 130.748 107.462 130.405 108.39 130.403H109.724C109.786 130.403 109.836 130.428 109.876 130.477C109.917 130.526 109.937 130.584 109.937 130.649V133.943C109.937 134.012 109.914 134.07 109.868 134.117C109.822 134.163 109.767 134.186 109.702 134.186H109.237C109.169 134.186 109.113 134.163 109.068 134.117C109.025 134.07 109.004 134.01 109.004 133.938V133.273H107.243L107.077 133.938C107.061 134.01 107.024 134.07 106.966 134.117C106.908 134.163 106.847 134.186 106.783 134.186H106.295C106.23 134.186 106.184 134.166 106.156 134.128C106.128 134.087 106.114 134.052 106.114 134.022C106.116 133.992 106.119 133.966 106.124 133.943ZM107.426 132.527H109.004V131.15H108.298C108.14 131.15 108.001 131.198 107.882 131.295C107.765 131.39 107.686 131.518 107.644 131.68L107.426 132.527Z" fill="#4E4E4E" />
  <path d="M110.646 133.933V130.649C110.646 130.58 110.669 130.522 110.715 130.475C110.761 130.427 110.816 130.403 110.881 130.403H113.736C113.8 130.403 113.855 130.428 113.899 130.477C113.946 130.526 113.969 130.585 113.969 130.654V130.902C113.969 130.97 113.946 131.029 113.899 131.079C113.855 131.126 113.8 131.15 113.736 131.15H111.579V131.917H113.436C113.501 131.917 113.555 131.942 113.6 131.991C113.646 132.039 113.669 132.097 113.669 132.165V132.413C113.669 132.482 113.646 132.541 113.6 132.59C113.555 132.637 113.501 132.661 113.436 132.661H111.579V133.439H113.731C113.794 133.439 113.847 133.463 113.892 133.51C113.937 133.558 113.959 133.616 113.959 133.685V133.938C113.959 134.006 113.936 134.065 113.89 134.114C113.843 134.162 113.788 134.186 113.724 134.186H110.881C110.816 134.186 110.761 134.162 110.715 134.114C110.669 134.065 110.646 134.005 110.646 133.933Z" fill="#4E4E4E" />
  <path d="M114.424 133.933V130.659C114.424 130.587 114.447 130.526 114.491 130.477C114.536 130.428 114.59 130.403 114.655 130.403H115.663C115.727 130.403 115.788 130.428 115.846 130.477C115.904 130.526 115.942 130.585 115.962 130.654L116.693 132.906L117.423 130.654C117.443 130.585 117.482 130.526 117.54 130.477C117.597 130.428 117.658 130.403 117.723 130.403H118.731C118.795 130.403 118.849 130.428 118.892 130.477C118.936 130.526 118.959 130.587 118.959 130.659V133.933C118.959 134.005 118.935 134.065 118.889 134.114C118.845 134.162 118.79 134.186 118.726 134.186H118.28C118.216 134.186 118.16 134.162 118.114 134.114C118.07 134.065 118.047 134.005 118.047 133.933V131.356L117.173 133.948C117.15 134.013 117.11 134.07 117.052 134.117C116.994 134.163 116.933 134.186 116.869 134.186H116.514C116.45 134.186 116.389 134.163 116.331 134.117C116.275 134.07 116.235 134.013 116.21 133.948L115.338 131.356V133.933C115.338 134.005 115.315 134.065 115.269 134.114C115.224 134.162 115.17 134.186 115.105 134.186H114.66C114.595 134.186 114.54 134.162 114.494 134.114C114.448 134.065 114.424 134.005 114.424 133.933Z" fill="#4E4E4E" />
  <path d="M121.702 133.74C121.397 133.429 121.244 132.948 121.244 132.297C121.244 131.645 121.397 131.163 121.702 130.852C122.009 130.539 122.469 130.382 123.082 130.382H123.634C124.008 130.382 124.339 130.486 124.627 130.693C124.916 130.901 125.06 131.185 125.06 131.545C125.06 131.649 125.031 131.724 124.973 131.77C124.916 131.814 124.859 131.836 124.805 131.836H124.51C124.358 131.836 124.24 131.739 124.156 131.545C124.034 131.268 123.831 131.129 123.547 131.129H123.106C122.745 131.129 122.5 131.211 122.371 131.377C122.242 131.542 122.178 131.848 122.178 132.295C122.178 132.741 122.242 133.048 122.371 133.215C122.5 133.38 122.745 133.463 123.106 133.463H123.599C123.883 133.463 124.085 133.324 124.206 133.046C124.29 132.851 124.409 132.753 124.562 132.753H124.857C124.935 132.753 124.996 132.784 125.04 132.846C125.086 132.907 125.11 132.974 125.11 133.046C125.11 133.407 124.966 133.691 124.679 133.898C124.391 134.104 124.06 134.207 123.686 134.207H123.082C122.469 134.207 122.009 134.051 121.702 133.74Z" fill="#4E4E4E" />
  <path d="M127.167 133.938V133.553C127.167 133.329 127.21 133.136 127.296 132.972C127.384 132.809 127.495 132.681 127.63 132.587C127.766 132.494 127.916 132.414 128.081 132.347C128.246 132.28 128.411 132.227 128.576 132.186C128.743 132.144 128.894 132.102 129.03 132.06C129.337 131.961 129.49 131.822 129.49 131.64C129.49 131.443 129.442 131.309 129.347 131.237C129.251 131.165 129.089 131.129 128.861 131.129H128.685C128.367 131.129 128.157 131.237 128.056 131.453C127.982 131.618 127.871 131.701 127.722 131.701H127.427C127.346 131.701 127.284 131.67 127.239 131.609C127.195 131.547 127.172 131.48 127.172 131.408C127.172 131.208 127.244 131.028 127.388 130.868C127.533 130.706 127.713 130.584 127.928 130.504C128.142 130.423 128.366 130.382 128.599 130.382H128.933C129.658 130.382 130.117 130.597 130.31 131.026C130.386 131.195 130.424 131.391 130.424 131.614C130.424 131.837 130.381 132.027 130.295 132.184C130.209 132.34 130.098 132.465 129.963 132.558C129.828 132.65 129.677 132.729 129.51 132.796C129.345 132.863 129.18 132.918 129.015 132.962C128.85 133.004 128.699 133.044 128.564 133.083C128.255 133.175 128.101 133.293 128.101 133.439H130.156C130.224 133.439 130.28 133.464 130.325 133.513C130.371 133.562 130.394 133.621 130.394 133.69V133.938C130.394 134.006 130.37 134.065 130.322 134.114C130.276 134.162 130.221 134.186 130.156 134.186H127.408C127.343 134.186 127.287 134.162 127.239 134.114C127.191 134.065 127.167 134.006 127.167 133.938Z" fill="#4E4E4E" />
  <path d="M130.728 132.295C130.728 131.941 130.774 131.638 130.864 131.385C130.957 131.131 131.087 130.934 131.256 130.791C131.576 130.519 131.994 130.382 132.509 130.382H132.682C133.197 130.382 133.615 130.519 133.935 130.791C134.287 131.09 134.463 131.591 134.463 132.295C134.463 133.001 134.287 133.503 133.935 133.801C133.615 134.071 133.197 134.207 132.682 134.207H132.509C131.994 134.207 131.576 134.071 131.256 133.801C130.904 133.503 130.728 133.001 130.728 132.295ZM132.595 131.129C131.973 131.129 131.662 131.518 131.662 132.297C131.662 133.074 131.973 133.463 132.595 133.463C133.218 133.463 133.529 133.074 133.529 132.297C133.529 131.518 133.218 131.129 132.595 131.129Z" fill="#4E4E4E" />
  <path d="M134.648 131.324C134.628 131.294 134.619 131.259 134.619 131.218C134.619 131.178 134.646 131.133 134.7 131.084L135.304 130.53C135.392 130.447 135.513 130.405 135.668 130.403H136.032C136.1 130.403 136.157 130.428 136.203 130.477C136.25 130.526 136.273 130.585 136.273 130.654V133.938C136.273 134.006 136.249 134.065 136.201 134.114C136.153 134.162 136.097 134.186 136.032 134.186H135.572C135.507 134.186 135.452 134.163 135.406 134.117C135.361 134.07 135.339 134.012 135.339 133.943V131.392L135.054 131.614C135.021 131.639 134.983 131.647 134.94 131.638C134.898 131.629 134.863 131.609 134.836 131.577L134.648 131.324Z" fill="#4E4E4E" />
  <path d="M136.78 132.295C136.78 131.941 136.826 131.638 136.917 131.385C137.009 131.131 137.139 130.934 137.308 130.791C137.628 130.519 138.046 130.382 138.561 130.382H138.734C139.249 130.382 139.667 130.519 139.987 130.791C140.339 131.09 140.515 131.591 140.515 132.295C140.515 133.001 140.339 133.503 139.987 133.801C139.667 134.071 139.249 134.207 138.734 134.207H138.561C138.046 134.207 137.628 134.071 137.308 133.801C136.956 133.503 136.78 133.001 136.78 132.295ZM138.647 131.129C138.025 131.129 137.714 131.518 137.714 132.297C137.714 133.074 138.025 133.463 138.647 133.463C139.27 133.463 139.581 133.074 139.581 132.297C139.581 131.518 139.27 131.129 138.647 131.129Z" fill="#4E4E4E" />
  <path d="M142.798 133.943V130.654C142.798 130.582 142.82 130.522 142.865 130.475C142.909 130.427 142.965 130.403 143.033 130.403H145.425C145.493 130.403 145.548 130.427 145.591 130.475C145.635 130.522 145.658 130.582 145.658 130.654V130.902C145.658 130.974 145.635 131.034 145.591 131.081C145.548 131.127 145.493 131.15 145.425 131.15H143.731V133.943C143.731 134.012 143.708 134.07 143.662 134.117C143.617 134.163 143.563 134.186 143.498 134.186H143.033C142.969 134.186 142.913 134.163 142.867 134.117C142.821 134.07 142.798 134.012 142.798 133.943Z" fill="#4E4E4E" />
  <path d="M149.268 133.795C148.931 134.11 148.436 134.267 147.782 134.267C147.13 134.267 146.635 134.11 146.297 133.795C145.958 133.479 145.789 132.979 145.789 132.295C145.789 131.611 145.958 131.111 146.297 130.796C146.635 130.482 147.13 130.324 147.782 130.324C148.436 130.324 148.931 130.482 149.268 130.796C149.607 131.111 149.776 131.611 149.776 132.295C149.776 132.979 149.607 133.479 149.268 133.795ZM148.592 131.353C148.425 131.142 148.156 131.036 147.782 131.036C147.411 131.036 147.141 131.142 146.973 131.353C146.806 131.564 146.723 131.879 146.723 132.297C146.723 132.714 146.806 133.028 146.973 133.239C147.141 133.448 147.411 133.553 147.782 133.553C148.156 133.553 148.425 133.448 148.592 133.239C148.759 133.028 148.842 132.714 148.842 132.297C148.842 131.879 148.759 131.564 148.592 131.353Z" fill="#4E4E4E" />
  <path d="M149.858 133.938V133.685C149.858 133.616 149.88 133.558 149.924 133.51C149.971 133.463 150.026 133.439 150.09 133.439H150.283L150.744 131.443C150.904 130.75 151.441 130.403 152.354 130.403H153.691C153.755 130.403 153.81 130.427 153.854 130.475C153.9 130.522 153.924 130.58 153.924 130.649V133.943C153.924 134.012 153.9 134.07 153.854 134.117C153.81 134.163 153.755 134.186 153.691 134.186H150.09C150.026 134.186 149.971 134.162 149.924 134.114C149.88 134.065 149.858 134.006 149.858 133.938ZM151.237 133.439H152.993V131.15H152.252C152.095 131.15 151.966 131.196 151.863 131.287C151.761 131.378 151.691 131.506 151.653 131.669L151.237 133.439Z" fill="#4E4E4E" />
  <path d="M154.342 133.943L154.964 131.432C155.132 130.748 155.68 130.405 156.608 130.403H157.943C158.004 130.403 158.054 130.428 158.094 130.477C158.135 130.526 158.156 130.584 158.156 130.649V133.943C158.156 134.012 158.132 134.07 158.086 134.117C158.04 134.163 157.985 134.186 157.92 134.186H157.455C157.387 134.186 157.331 134.163 157.286 134.117C157.243 134.07 157.222 134.01 157.222 133.938V133.273H155.461L155.295 133.938C155.279 134.01 155.242 134.07 155.184 134.117C155.126 134.163 155.065 134.186 155.001 134.186H154.513C154.449 134.186 154.402 134.166 154.374 134.128C154.346 134.087 154.332 134.052 154.332 134.022C154.334 133.992 154.337 133.966 154.342 133.943ZM155.645 132.527H157.222V131.15H156.516C156.358 131.15 156.219 131.198 156.1 131.295C155.983 131.39 155.904 131.518 155.863 131.68L155.645 132.527Z" fill="#4E4E4E" />
</svg>