<svg width="163" height="80" viewBox="0 0 163 80" fill="none" xmlns="http://www.w3.org/2000/svg">
  <path d="M0 61.7237V59.7803C0 59.2539 0.182219 58.8085 0.546656 58.4441C0.924591 58.0797 1.37676 57.8975 1.90317 57.8975H3.4824L7.24825 42.5726C8.55753 37.2551 12.9443 34.5963 20.4085 34.5963H31.3416C31.868 34.5963 32.3134 34.7785 32.6779 35.1429C33.0558 35.5073 33.2448 35.9527 33.2448 36.479V61.7642C33.2448 62.2906 33.0558 62.7359 32.6779 63.1003C32.3134 63.4512 31.868 63.6267 31.3416 63.6267H1.90317C1.37676 63.6267 0.924591 63.4445 0.546656 63.0801C0.182219 62.7022 0 62.2501 0 61.7237ZM11.2773 57.8975H25.6321V40.3255H19.5784C18.2961 40.3255 17.2365 40.6764 16.3997 41.3782C15.5628 42.08 14.9892 43.0584 14.6787 44.3136L11.2773 57.8975Z" fill="#B00004" />
  <path d="M40.0678 62.1691C38.2862 60.9274 37.3953 59.1729 37.3953 56.9056C37.3953 54.6382 38.2862 52.8972 40.0678 51.6825C41.863 50.4679 44.1711 49.8605 46.9922 49.8605H53.6937C53.6937 48.2815 53.3631 47.1815 52.7017 46.5607C52.0403 45.9399 50.8795 45.6295 49.2193 45.6295C47.5726 45.6295 46.4118 46.0411 45.7369 46.8644C45.0755 47.6742 44.2589 48.079 43.287 48.079H40.2703C39.9059 48.079 39.6022 47.9643 39.3592 47.7349C39.1298 47.492 39.015 47.195 39.015 46.8441C39.015 42.9707 42.6931 41.034 50.0494 41.034C53.2618 41.034 55.8399 41.7561 57.7835 43.2002C59.7272 44.6308 60.699 46.8509 60.699 49.8605V62.3918C60.699 62.7562 60.5843 63.0531 60.3548 63.2825C60.1254 63.512 59.8284 63.6267 59.464 63.6267H55.5564C55.192 63.6267 54.895 63.512 54.6656 63.2825C54.4361 63.0396 54.3214 62.7427 54.3214 62.3918V61.7642C52.1888 63.2893 49.7254 64.0451 46.9314 64.0316C44.1509 64.0316 41.863 63.4107 40.0678 62.1691ZM47.4781 54.456C46.5332 54.456 45.7841 54.6854 45.2307 55.1443C44.6908 55.6032 44.4208 56.197 44.4208 56.9258C44.4208 57.6546 44.7043 58.2552 45.2712 58.7276C45.8381 59.1999 46.6412 59.4361 47.6805 59.4361C49.7592 59.4361 51.7636 58.8288 53.6937 57.6141V54.456H47.4781Z" fill="#B00004" />
  <path d="M65.6999 69.2141V42.694C65.6999 42.3296 65.8147 42.0327 66.0441 41.8033C66.2871 41.5604 66.584 41.4389 66.935 41.4389H70.8425C71.1935 41.4389 71.4837 41.5604 71.7131 41.8033C71.9561 42.0327 72.0776 42.3296 72.0776 42.694V43.3014C74.2102 41.7898 76.687 41.034 79.5081 41.034C82.3291 41.034 84.6844 42.0327 86.5741 44.0302C88.4638 46.0141 89.4086 48.8618 89.4086 52.5733C89.4086 56.2712 88.43 59.1055 86.4728 61.0759C84.5157 63.0463 81.8769 64.0316 78.5565 64.0316C76.8423 64.0316 74.8918 63.6874 72.7052 62.9991V69.2141C72.7052 69.5785 72.5837 69.8754 72.3408 70.1049C72.1113 70.3478 71.8211 70.4693 71.4702 70.4693H66.935C66.584 70.4693 66.2871 70.3478 66.0441 70.1049C65.8147 69.8754 65.6999 69.5785 65.6999 69.2141ZM72.7052 58.3227C74.4464 58.876 75.9109 59.1527 77.0987 59.1527C78.9479 59.1527 80.2572 58.6263 81.0265 57.5736C81.8094 56.5209 82.2008 54.8406 82.2008 52.5328C82.2008 50.2249 81.8297 48.5514 81.0873 47.5122C80.3584 46.4595 79.2583 45.9331 77.7871 45.9331C76.3294 45.9331 74.6354 46.5405 72.7052 47.7551V58.3227Z" fill="#B00004" />
  <path d="M95.0574 61.1164C92.9517 59.1729 91.8989 56.3117 91.8989 52.5328C91.8989 48.7404 92.9517 45.8792 95.0574 43.9492C97.163 42.0057 100.186 41.034 104.128 41.034C108.083 41.034 111.113 42.0057 113.218 43.9492C115.324 45.8792 116.377 48.7404 116.377 52.5328C116.377 56.3117 115.324 59.1729 113.218 61.1164C111.113 63.0598 108.083 64.0316 104.128 64.0316C100.186 64.0316 97.163 63.0598 95.0574 61.1164ZM100.18 47.2693C99.3429 48.3625 98.9245 50.1102 98.9245 52.5125C98.9245 54.9149 99.3429 56.6694 100.18 57.7761C101.017 58.8828 102.333 59.4361 104.128 59.4361C105.936 59.4361 107.259 58.8828 108.096 57.7761C108.946 56.6694 109.372 54.9149 109.372 52.5125C109.372 50.1102 108.946 48.3625 108.096 47.2693C107.259 46.1761 105.936 45.6295 104.128 45.6295C102.333 45.6295 101.017 46.1761 100.18 47.2693Z" fill="#B00004" />
  <path d="M120.123 62.3918V42.694C120.123 42.3296 120.237 42.0327 120.467 41.8033C120.71 41.5604 121.007 41.4389 121.358 41.4389H128.322C129.119 41.4389 129.726 41.9383 130.145 42.937L135.085 55.0026L140.025 42.937C140.443 41.9383 141.051 41.4389 141.847 41.4389H148.812C149.176 41.4389 149.473 41.5604 149.703 41.8033C149.946 42.0327 150.067 42.3296 150.067 42.694V62.3918C150.067 62.7562 149.946 63.0531 149.703 63.2825C149.473 63.512 149.176 63.6267 148.812 63.6267H144.418C144.054 63.6267 143.757 63.512 143.528 63.2825C143.298 63.0396 143.183 62.7427 143.183 62.3918V49.7391L138 62.2096C137.582 63.1543 136.941 63.6267 136.077 63.6267H134.093C133.242 63.6267 132.608 63.1543 132.189 62.2096L127.006 49.7391V62.3918C127.006 62.7562 126.885 63.0531 126.642 63.2825C126.412 63.512 126.116 63.6267 125.751 63.6267H121.358C120.993 63.6267 120.696 63.512 120.467 63.2825C120.237 63.0531 120.123 62.7562 120.123 62.3918Z" fill="#B00004" />
  <path d="M8.375 27.1274V25.184C8.375 24.6576 8.55722 24.2122 8.92166 23.8478C9.29959 23.4834 9.75176 23.3012 10.2782 23.3012H11.8574L15.6232 7.97627C16.9325 2.65876 21.3193 0 28.7835 0H39.7166C40.243 0 40.6884 0.182199 41.0529 0.546597C41.4308 0.910995 41.6198 1.35637 41.6198 1.88272V27.1679C41.6198 27.6942 41.4308 28.1396 41.0529 28.504C40.6884 28.8549 40.243 29.0304 39.7166 29.0304H10.2782C9.75176 29.0304 9.29959 28.8482 8.92166 28.4838C8.55722 28.1059 8.375 27.6538 8.375 27.1274ZM19.6523 23.3012H34.0071V5.72915H27.9534C26.6711 5.72915 25.6115 6.08005 24.7747 6.78185C23.9378 7.48365 23.3642 8.46213 23.0537 9.71728L19.6523 23.3012Z" fill="#B00004" />
  <path d="M47.0256 27.7955V8.09773C47.0256 7.73333 47.1403 7.43642 47.3698 7.20698C47.6127 6.96405 47.9097 6.84258 48.2606 6.84258H60.368C62.9461 6.84258 65.0315 7.34194 66.6242 8.34067C68.2304 9.33939 69.0335 10.8442 69.0335 12.8552C69.0335 14.8526 68.2034 16.3642 66.5432 17.3899C68.9053 18.5776 70.0863 20.3388 70.0863 22.6737C70.0863 25.0085 69.3237 26.655 67.7985 27.6133C66.2733 28.558 64.0866 29.0304 61.2386 29.0304H48.2606C47.9097 29.0304 47.6127 28.9157 47.3698 28.6862C47.1403 28.4433 47.0256 28.1464 47.0256 27.7955ZM54.0309 24.5159H60.7527C61.4951 24.5159 62.062 24.3067 62.4534 23.8883C62.8583 23.4699 63.0608 22.9166 63.0608 22.2283C63.0608 21.54 62.8583 20.9866 62.4534 20.5682C62.062 20.1499 61.4951 19.9407 60.7527 19.9407H54.0309V24.5159ZM54.0309 15.5072H59.9631C60.5705 15.5072 61.0632 15.3182 61.4411 14.9403C61.8325 14.5489 62.0282 14.0496 62.0282 13.4422C62.0282 12.8349 61.8325 12.3423 61.4411 11.9644C61.0632 11.573 60.5705 11.3773 59.9631 11.3773H54.0309V15.5072Z" fill="#B00004" />
  <path d="M75.4922 26.4796C73.4135 24.5091 72.3742 21.6749 72.3742 17.977C72.3742 14.2655 73.4203 11.4178 75.5124 9.43386C77.6046 7.43642 80.5066 6.4377 84.2184 6.4377C87.9303 6.4377 90.8255 7.40943 92.9042 9.35288C94.9828 11.2828 96.0221 14.0563 96.0221 17.6733V18.8272C96.0221 19.1916 95.9006 19.4953 95.6577 19.7382C95.4282 19.9677 95.1313 20.0824 94.7668 20.0824H79.5212C79.6562 21.7424 80.1286 22.9503 80.9385 23.7061C81.7618 24.4619 83.0711 24.8398 84.8663 24.8398C86.6615 24.8398 87.8898 24.4349 88.5512 23.6251C89.2125 22.8154 90.0292 22.4037 91.001 22.3902H94.0177C94.3822 22.3902 94.6791 22.5117 94.9086 22.7546C95.1515 22.9841 95.273 23.281 95.273 23.6454C95.273 27.5188 91.5814 29.4488 84.1982 29.4353C80.4728 29.4353 77.5708 28.45 75.4922 26.4796ZM79.4807 15.8108H88.8954C88.7604 12.6257 87.1947 11.0332 84.1982 11.0332C81.2152 11.0332 79.6427 12.6257 79.4807 15.8108Z" fill="#B00004" />
  <path d="M99.7475 34.6178V8.09773C99.7475 7.73333 99.8622 7.43642 100.092 7.20698C100.335 6.96405 100.632 6.84258 100.983 6.84258H104.89C105.241 6.84258 105.531 6.96405 105.761 7.20698C106.004 7.43642 106.125 7.73333 106.125 8.09773V8.70506C108.258 7.19349 110.735 6.4377 113.556 6.4377C116.377 6.4377 118.732 7.43642 120.622 9.43386C122.511 11.4178 123.456 14.2655 123.456 17.977C123.456 21.6749 122.478 24.5091 120.52 26.4796C118.563 28.45 115.924 29.4353 112.604 29.4353C110.89 29.4353 108.939 29.0911 106.753 28.4028V34.6178C106.753 34.9822 106.631 35.2791 106.388 35.5086C106.159 35.7515 105.869 35.873 105.518 35.873H100.983C100.632 35.873 100.335 35.7515 100.092 35.5086C99.8622 35.2791 99.7475 34.9822 99.7475 34.6178ZM106.753 23.7264C108.494 24.2797 109.958 24.5564 111.146 24.5564C112.995 24.5564 114.305 24.03 115.074 22.9773C115.857 21.9246 116.248 20.2443 116.248 17.9365C116.248 15.6286 115.877 13.9551 115.135 12.9159C114.406 11.8632 113.306 11.3368 111.835 11.3368C110.377 11.3368 108.683 11.9442 106.753 13.1588V23.7264Z" fill="#B00004" />
  <path d="M127.202 27.7955V8.09773C127.202 7.73333 127.316 7.43642 127.546 7.20698C127.789 6.96405 128.086 6.84258 128.437 6.84258H132.668C133.033 6.84258 133.33 6.96405 133.559 7.20698C133.802 7.43642 133.924 7.73333 133.924 8.09773V21.3983L141.05 8.30018C141.266 7.88179 141.597 7.53764 142.042 7.26772C142.488 6.9843 142.92 6.84258 143.338 6.84258H149.007C149.372 6.84258 149.669 6.96405 149.898 7.20698C150.141 7.43642 150.263 7.73333 150.263 8.09773V27.7955C150.263 28.1599 150.141 28.4568 149.898 28.6862C149.669 28.9157 149.372 29.0304 149.007 29.0304H144.776C144.411 29.0304 144.114 28.9157 143.885 28.6862C143.655 28.4433 143.541 28.1464 143.541 27.7955V14.5152L136.414 27.5728C136.198 27.9642 135.867 28.3083 135.422 28.6052C134.976 28.8887 134.544 29.0304 134.126 29.0304H128.437C128.072 29.0304 127.775 28.9157 127.546 28.6862C127.316 28.4568 127.202 28.1599 127.202 27.7955Z" fill="#B00004" />
  <path d="M157.834 0C156.834 0 155.857 0.296421 155.026 0.851775C154.194 1.40713 153.547 2.19648 153.164 3.12001C152.782 4.04352 152.682 5.05976 152.877 6.04016C153.072 7.02056 153.553 7.92111 154.26 8.62798C154.967 9.3348 155.867 9.81616 156.848 10.0112C157.828 10.2062 158.844 10.1061 159.768 9.72357C160.691 9.34102 161.481 8.69323 162.036 7.86208C162.591 7.03092 162.888 6.05375 162.888 5.05415C162.888 3.7137 162.355 2.42816 161.407 1.48032C160.46 0.53249 159.174 0 157.834 0ZM157.834 9.09746C157.034 9.09746 156.252 8.86032 155.587 8.41606C154.922 7.97175 154.404 7.34029 154.098 6.60147C153.792 5.86266 153.712 5.04965 153.868 4.26534C154.024 3.48101 154.409 2.76056 154.974 2.19509C155.54 1.62962 156.26 1.24453 157.045 1.08852C157.829 0.93251 158.642 1.01258 159.381 1.31861C160.12 1.62464 160.751 2.14288 161.195 2.8078C161.64 3.47272 161.877 4.25443 161.877 5.05415C161.877 6.12648 161.451 7.15495 160.693 7.91322C159.934 8.67145 158.906 9.09746 157.834 9.09746Z" fill="#B00004" />
  <path d="M159.855 4.04331C159.855 3.64117 159.695 3.25551 159.411 2.97116C159.127 2.68681 158.741 2.52706 158.339 2.52706H155.812V7.58121H156.823V5.55955H157.561L158.91 7.58121H160.123L158.733 5.4989C159.054 5.41258 159.337 5.22345 159.54 4.96048C159.742 4.69751 159.853 4.37531 159.855 4.04331ZM158.339 4.54872H156.823V3.53789H158.339C158.473 3.53789 158.601 3.59114 158.696 3.68592C158.791 3.78071 158.844 3.90926 158.844 4.04331C158.844 4.17734 158.791 4.30592 158.696 4.40068C158.601 4.49545 158.473 4.54872 158.339 4.54872Z" fill="#B00004" />
  <path fill-rule="evenodd" clip-rule="evenodd" d="M62.9603 78.2671H0V77.4006H62.9603V78.2671Z" fill="#4E4E4E" />
  <path d="M66.1367 79.6137V75.7655C66.1367 75.6851 66.1628 75.6161 66.2151 75.5584C66.2673 75.5007 66.3311 75.4718 66.4066 75.4718H68.6207C69.7911 75.4718 70.3763 76.0467 70.3763 77.1966C70.3763 78.3443 69.7911 78.9182 68.6207 78.9182H67.2307V79.6137C67.2307 79.694 67.2036 79.7631 67.1495 79.8208C67.0972 79.8764 67.0334 79.9042 66.9579 79.9042H66.4124C66.3369 79.9042 66.2721 79.8764 66.218 79.8208C66.1638 79.7631 66.1367 79.694 66.1367 79.6137ZM67.2307 78.0435H68.2899C68.6149 78.0435 68.8616 77.9858 69.0299 77.8704C69.1982 77.7529 69.2823 77.5283 69.2823 77.1966C69.2823 76.8627 69.1982 76.6381 69.0299 76.5227C68.8616 76.4053 68.6149 76.3466 68.2899 76.3466H67.2307V78.0435Z" fill="#4E4E4E" />
  <path d="M70.4837 79.6198L71.2121 76.6773C71.4094 75.8757 72.0517 75.4739 73.1389 75.4718H74.703C74.7746 75.4718 74.8336 75.5007 74.88 75.5584C74.9284 75.6161 74.9525 75.683 74.9525 75.7593V79.6198C74.9525 79.7002 74.9254 79.7682 74.8713 79.8238C74.8171 79.8774 74.7523 79.9042 74.6769 79.9042H74.1313C74.052 79.9042 73.9862 79.8774 73.934 79.8238C73.8837 79.7682 73.8585 79.6981 73.8585 79.6137V78.8347H71.7953L71.6009 79.6137C71.5816 79.6981 71.538 79.7682 71.4703 79.8238C71.4026 79.8774 71.331 79.9042 71.2556 79.9042H70.6839C70.6085 79.9042 70.5543 79.8815 70.5214 79.8362C70.4885 79.7888 70.4721 79.7476 70.4721 79.7126C70.474 79.6775 70.4779 79.6466 70.4837 79.6198ZM72.0101 77.96H73.8585V76.3466H73.0315C72.8458 76.3466 72.6833 76.4032 72.544 76.5166C72.4066 76.6278 72.3138 76.7782 72.2654 76.9678L72.0101 77.96Z" fill="#4E4E4E" />
  <path d="M75.7825 79.6198V75.7655C75.7825 75.681 75.8086 75.6109 75.8608 75.5553C75.913 75.4996 75.9788 75.4718 76.0581 75.4718H79.3256C79.4011 75.4718 79.4649 75.5007 79.5171 75.5584C79.5713 75.6161 79.5984 75.6851 79.5984 75.7655V76.056C79.5984 76.1364 79.5723 76.2054 79.52 76.2631C79.4697 76.3187 79.4069 76.3466 79.3314 76.3466H76.8765V77.0946H78.31C78.7801 77.0946 79.1612 77.213 79.4533 77.45C79.7454 77.6849 79.8915 78.0352 79.8915 78.5009C79.8915 78.9646 79.7454 79.3149 79.4533 79.5518C79.1612 79.7868 78.7801 79.9042 78.31 79.9042H76.0436C75.9701 79.9042 75.9082 79.8774 75.8579 79.8238C75.8076 79.7682 75.7825 79.7002 75.7825 79.6198ZM76.8765 79.0295H78.31C78.635 79.0295 78.7975 78.8523 78.7975 78.4978C78.7975 78.1434 78.635 77.9662 78.31 77.9662H76.8765V79.0295Z" fill="#4E4E4E" />
  <path d="M84.3226 79.4468C83.9279 79.8156 83.3476 80 82.5815 80C81.8173 80 81.237 79.8156 80.8404 79.4468C80.4438 79.0758 80.2455 78.4896 80.2455 77.688C80.2455 76.8864 80.4438 76.3012 80.8404 75.9324C81.237 75.5635 81.8173 75.3791 82.5815 75.3791C83.3476 75.3791 83.9279 75.5635 84.3226 75.9324C84.7192 76.3012 84.9175 76.8864 84.9175 77.688C84.9175 78.4896 84.7192 79.0758 84.3226 79.4468ZM83.5304 76.5846C83.335 76.3373 83.0187 76.2136 82.5815 76.2136C82.1462 76.2136 81.8299 76.3373 81.6326 76.5846C81.4372 76.8318 81.3395 77.2007 81.3395 77.6911C81.3395 78.1795 81.4372 78.5473 81.6326 78.7946C81.8299 79.0398 82.1462 79.1624 82.5815 79.1624C83.0187 79.1624 83.335 79.0398 83.5304 78.7946C83.7258 78.5473 83.8235 78.1795 83.8235 77.6911C83.8235 77.2007 83.7258 76.8318 83.5304 76.5846Z" fill="#4E4E4E" />
  <path d="M85.0713 76.056V75.7655C85.0713 75.681 85.0974 75.6109 85.1496 75.5553C85.2019 75.4996 85.2676 75.4718 85.347 75.4718H89.0294C89.1087 75.4718 89.1745 75.4996 89.2267 75.5553C89.279 75.6109 89.3051 75.681 89.3051 75.7655V76.056C89.3051 76.1405 89.279 76.2105 89.2267 76.2662C89.1745 76.3198 89.1087 76.3466 89.0294 76.3466H87.7352V79.6198C87.7352 79.7002 87.7081 79.7682 87.6539 79.8238C87.6017 79.8774 87.5378 79.9042 87.4624 79.9042H86.914C86.8385 79.9042 86.7737 79.8774 86.7195 79.8238C86.6673 79.7682 86.6412 79.7002 86.6412 79.6198V76.3466H85.347C85.2676 76.3466 85.2019 76.3198 85.1496 76.2662C85.0974 76.2105 85.0713 76.1405 85.0713 76.056Z" fill="#4E4E4E" />
  <path d="M89.2064 79.6198L89.9348 76.6773C90.1321 75.8757 90.7744 75.4739 91.8616 75.4718H93.4257C93.4973 75.4718 93.5563 75.5007 93.6027 75.5584C93.6511 75.6161 93.6753 75.683 93.6753 75.7593V79.6198C93.6753 79.7002 93.6482 79.7682 93.594 79.8238C93.5398 79.8774 93.475 79.9042 93.3996 79.9042H92.854C92.7747 79.9042 92.7089 79.8774 92.6567 79.8238C92.6064 79.7682 92.5813 79.6981 92.5813 79.6137V78.8347H90.518L90.3236 79.6137C90.3043 79.6981 90.2607 79.7682 90.193 79.8238C90.1253 79.8774 90.0538 79.9042 89.9783 79.9042H89.4066C89.3312 79.9042 89.277 79.8815 89.2441 79.8362C89.2112 79.7888 89.1948 79.7476 89.1948 79.7126C89.1967 79.6775 89.2006 79.6466 89.2064 79.6198ZM90.7328 77.96H92.5813V76.3466H91.7542C91.5685 76.3466 91.406 76.4032 91.2667 76.5166C91.1294 76.6278 91.0365 76.7782 90.9881 76.9678L90.7328 77.96Z" fill="#4E4E4E" />
  <path d="M94.5052 79.6075V75.7593C94.5052 75.6789 94.5323 75.6109 94.5864 75.5553C94.6406 75.4996 94.7054 75.4718 94.7809 75.4718H98.1267C98.2021 75.4718 98.266 75.5007 98.3182 75.5584C98.3724 75.6161 98.3995 75.6851 98.3995 75.7655V76.056C98.3995 76.1364 98.3724 76.2054 98.3182 76.2631C98.266 76.3187 98.2021 76.3466 98.1267 76.3466H95.5992V77.246H97.7756C97.851 77.246 97.9149 77.2749 97.9671 77.3326C98.0213 77.3882 98.0483 77.4562 98.0483 77.5366V77.8271C98.0483 77.9075 98.0213 77.9765 97.9671 78.0342C97.9149 78.0898 97.851 78.1177 97.7756 78.1177H95.5992V79.0295H98.1209C98.1944 79.0295 98.2573 79.0573 98.3095 79.1129C98.3617 79.1686 98.3879 79.2366 98.3879 79.3169V79.6137C98.3879 79.694 98.3608 79.7631 98.3066 79.8208C98.2524 79.8764 98.1876 79.9042 98.1122 79.9042H94.7809C94.7054 79.9042 94.6406 79.8764 94.5864 79.8208C94.5323 79.7631 94.5052 79.692 94.5052 79.6075Z" fill="#4E4E4E" />
  <path d="M98.9334 79.6075V75.7716C98.9334 75.6872 98.9595 75.6161 99.0118 75.5584C99.064 75.5007 99.1278 75.4718 99.2033 75.4718H100.384C100.46 75.4718 100.531 75.5007 100.599 75.5584C100.667 75.6161 100.712 75.6851 100.735 75.7655L101.591 78.4051L102.448 75.7655C102.471 75.6851 102.516 75.6161 102.584 75.5584C102.652 75.5007 102.723 75.4718 102.799 75.4718H103.98C104.055 75.4718 104.118 75.5007 104.168 75.5584C104.221 75.6161 104.247 75.6872 104.247 75.7716V79.6075C104.247 79.692 104.22 79.7631 104.165 79.8208C104.113 79.8764 104.049 79.9042 103.974 79.9042H103.452C103.376 79.9042 103.311 79.8764 103.257 79.8208C103.205 79.7631 103.179 79.692 103.179 79.6075V76.5876L102.154 79.626C102.127 79.7023 102.08 79.7682 102.012 79.8238C101.945 79.8774 101.873 79.9042 101.798 79.9042H101.383C101.307 79.9042 101.236 79.8774 101.168 79.8238C101.102 79.7682 101.055 79.7023 101.026 79.626L100.004 76.5876V79.6075C100.004 79.692 99.9771 79.7631 99.9229 79.8208C99.8707 79.8764 99.8069 79.9042 99.7314 79.9042H99.2091C99.1336 79.9042 99.0688 79.8764 99.0147 79.8208C98.9605 79.7631 98.9334 79.692 98.9334 79.6075Z" fill="#4E4E4E" />
  <path d="M107.462 79.3818C107.104 79.0171 106.925 78.4535 106.925 77.6911C106.925 76.9266 107.104 76.362 107.462 75.9973C107.822 75.6305 108.361 75.4471 109.078 75.4471H109.725C110.165 75.4471 110.552 75.5687 110.889 75.8118C111.228 76.055 111.397 76.3878 111.397 76.8102C111.397 76.9318 111.363 77.0193 111.295 77.0729C111.228 77.1244 111.162 77.1502 111.098 77.1502H110.753C110.575 77.1502 110.436 77.0369 110.338 76.8102C110.195 76.4846 109.957 76.3218 109.624 76.3218H109.107C108.684 76.3218 108.396 76.4187 108.245 76.6124C108.095 76.8061 108.019 77.1646 108.019 77.688C108.019 78.2114 108.095 78.571 108.245 78.7667C108.396 78.9604 108.684 79.0573 109.107 79.0573H109.685C110.017 79.0573 110.254 78.8945 110.396 78.5689C110.494 78.3402 110.634 78.2258 110.814 78.2258H111.159C111.25 78.2258 111.321 78.2619 111.374 78.334C111.428 78.4061 111.455 78.4844 111.455 78.5689C111.455 78.9914 111.287 79.3241 110.95 79.5673C110.613 79.8084 110.225 79.9289 109.786 79.9289H109.078C108.361 79.9289 107.822 79.7466 107.462 79.3818Z" fill="#4E4E4E" />
  <path d="M113.866 79.6137V79.1624C113.866 78.9007 113.917 78.674 114.017 78.4824C114.12 78.2907 114.25 78.1403 114.409 78.0311C114.568 77.9219 114.744 77.8281 114.937 77.7498C115.131 77.6715 115.324 77.6087 115.517 77.5613C115.713 77.5118 115.89 77.4624 116.049 77.4129C116.408 77.2975 116.588 77.1337 116.588 76.9215C116.588 76.6907 116.532 76.533 116.42 76.4486C116.308 76.3641 116.118 76.3218 115.851 76.3218H115.645C115.272 76.3218 115.026 76.4486 114.908 76.702C114.821 76.8957 114.69 76.9926 114.516 76.9926H114.171C114.076 76.9926 114.003 76.9565 113.95 76.8844C113.898 76.8123 113.872 76.7339 113.872 76.6495C113.872 76.4146 113.956 76.2033 114.125 76.0158C114.295 75.8262 114.506 75.6841 114.757 75.5893C115.009 75.4945 115.271 75.4471 115.544 75.4471H115.935C116.785 75.4471 117.322 75.6985 117.549 76.2013C117.638 76.3991 117.682 76.6289 117.682 76.8906C117.682 77.1523 117.632 77.3748 117.531 77.5582C117.431 77.7416 117.301 77.8879 117.143 77.9971C116.984 78.1043 116.807 78.197 116.611 78.2753C116.418 78.3536 116.225 78.4185 116.031 78.47C115.838 78.5195 115.662 78.5669 115.503 78.6122C115.141 78.7194 114.96 78.8584 114.96 79.0295H117.369C117.448 79.0295 117.514 79.0583 117.566 79.116C117.62 79.1737 117.647 79.2428 117.647 79.3231V79.6137C117.647 79.694 117.619 79.7631 117.563 79.8208C117.509 79.8764 117.444 79.9042 117.369 79.9042H114.148C114.072 79.9042 114.007 79.8764 113.95 79.8208C113.894 79.7631 113.866 79.694 113.866 79.6137Z" fill="#4E4E4E" />
  <path d="M118.039 77.688C118.039 77.2738 118.092 76.9184 118.199 76.6216C118.307 76.3249 118.46 76.0931 118.657 75.9262C119.033 75.6068 119.522 75.4471 120.126 75.4471H120.329C120.932 75.4471 121.422 75.6068 121.797 75.9262C122.209 76.2765 122.415 76.8638 122.415 77.688C122.415 78.5164 122.209 79.1047 121.797 79.4529C121.422 79.7703 120.932 79.9289 120.329 79.9289H120.126C119.522 79.9289 119.033 79.7703 118.657 79.4529C118.245 79.1047 118.039 78.5164 118.039 77.688ZM120.227 76.3218C119.498 76.3218 119.133 76.7782 119.133 77.6911C119.133 78.6019 119.498 79.0573 120.227 79.0573C120.956 79.0573 121.321 78.6019 121.321 77.6911C121.321 76.7782 120.956 76.3218 120.227 76.3218Z" fill="#4E4E4E" />
  <path d="M122.633 76.5506C122.61 76.5155 122.598 76.4743 122.598 76.4269C122.598 76.3795 122.63 76.327 122.694 76.2693L123.402 75.6202C123.504 75.5233 123.647 75.4739 123.828 75.4718H124.255C124.334 75.4718 124.401 75.5007 124.455 75.5584C124.509 75.6161 124.536 75.6851 124.536 75.7655V79.6137C124.536 79.694 124.508 79.7631 124.452 79.8208C124.396 79.8764 124.33 79.9042 124.255 79.9042H123.715C123.64 79.9042 123.575 79.8774 123.521 79.8238C123.469 79.7682 123.442 79.7002 123.442 79.6198V76.6309L123.109 76.8906C123.07 76.9194 123.026 76.9287 122.975 76.9184C122.925 76.9081 122.884 76.8844 122.853 76.8473L122.633 76.5506Z" fill="#4E4E4E" />
  <path d="M125.131 77.688C125.131 77.2738 125.184 76.9184 125.291 76.6216C125.399 76.3249 125.552 76.0931 125.749 75.9262C126.125 75.6068 126.614 75.4471 127.218 75.4471H127.421C128.024 75.4471 128.514 75.6068 128.889 75.9262C129.301 76.2765 129.507 76.8638 129.507 77.688C129.507 78.5164 129.301 79.1047 128.889 79.4529C128.514 79.7703 128.024 79.9289 127.421 79.9289H127.218C126.614 79.9289 126.125 79.7703 125.749 79.4529C125.337 79.1047 125.131 78.5164 125.131 77.688ZM127.319 76.3218C126.59 76.3218 126.225 76.7782 126.225 77.6911C126.225 78.6019 126.59 79.0573 127.319 79.0573C128.049 79.0573 128.413 78.6019 128.413 77.6911C128.413 76.7782 128.049 76.3218 127.319 76.3218Z" fill="#4E4E4E" />
  <path d="M132.183 79.6198V75.7655C132.183 75.681 132.209 75.6109 132.261 75.5553C132.313 75.4996 132.379 75.4718 132.458 75.4718H135.262C135.341 75.4718 135.406 75.4996 135.456 75.5553C135.508 75.6109 135.534 75.681 135.534 75.7655V76.056C135.534 76.1405 135.508 76.2105 135.456 76.2662C135.406 76.3198 135.341 76.3466 135.262 76.3466H133.277V79.6198C133.277 79.7002 133.25 79.7682 133.196 79.8238C133.143 79.8774 133.079 79.9042 133.004 79.9042H132.458C132.383 79.9042 132.318 79.8774 132.264 79.8238C132.21 79.7682 132.183 79.7002 132.183 79.6198Z" fill="#4E4E4E" />
  <path d="M139.765 79.4468C139.371 79.8156 138.79 80 138.024 80C137.26 80 136.68 79.8156 136.283 79.4468C135.887 79.0758 135.688 78.4896 135.688 77.688C135.688 76.8864 135.887 76.3012 136.283 75.9324C136.68 75.5635 137.26 75.3791 138.024 75.3791C138.79 75.3791 139.371 75.5635 139.765 75.9324C140.162 76.3012 140.36 76.8864 140.36 77.688C140.36 78.4896 140.162 79.0758 139.765 79.4468ZM138.973 76.5846C138.778 76.3373 138.461 76.2136 138.024 76.2136C137.589 76.2136 137.273 76.3373 137.075 76.5846C136.88 76.8318 136.782 77.2007 136.782 77.6911C136.782 78.1795 136.88 78.5473 137.075 78.7946C137.273 79.0398 137.589 79.1624 138.024 79.1624C138.461 79.1624 138.778 79.0398 138.973 78.7946C139.168 78.5473 139.266 78.1795 139.266 77.6911C139.266 77.2007 139.168 76.8318 138.973 76.5846Z" fill="#4E4E4E" />
  <path d="M140.456 79.6137V79.3169C140.456 79.2366 140.482 79.1686 140.534 79.1129C140.588 79.0573 140.653 79.0295 140.729 79.0295H140.955L141.495 76.6896C141.682 75.8778 142.311 75.4718 143.381 75.4718H144.948C145.023 75.4718 145.087 75.4996 145.14 75.5553C145.194 75.6109 145.221 75.6789 145.221 75.7593V79.6198C145.221 79.7002 145.194 79.7682 145.14 79.8238C145.087 79.8774 145.023 79.9042 144.948 79.9042H140.729C140.653 79.9042 140.588 79.8764 140.534 79.8208C140.482 79.7631 140.456 79.694 140.456 79.6137ZM142.072 79.0295H144.13V76.3466H143.262C143.078 76.3466 142.926 76.4001 142.806 76.5073C142.687 76.6144 142.604 76.7638 142.56 76.9555L142.072 79.0295Z" fill="#4E4E4E" />
  <path d="M145.711 79.6198L146.44 76.6773C146.637 75.8757 147.279 75.4739 148.366 75.4718H149.93C150.002 75.4718 150.061 75.5007 150.107 75.5584C150.156 75.6161 150.18 75.683 150.18 75.7593V79.6198C150.18 79.7002 150.153 79.7682 150.099 79.8238C150.045 79.8774 149.98 79.9042 149.904 79.9042H149.359C149.28 79.9042 149.214 79.8774 149.161 79.8238C149.111 79.7682 149.086 79.6981 149.086 79.6137V78.8347H147.023L146.828 79.6137C146.809 79.6981 146.766 79.7682 146.698 79.8238C146.63 79.8774 146.559 79.9042 146.483 79.9042H145.911C145.836 79.9042 145.782 79.8815 145.749 79.8362C145.716 79.7888 145.7 79.7476 145.7 79.7126C145.702 79.6775 145.705 79.6466 145.711 79.6198ZM147.238 77.96H149.086V76.3466H148.259C148.073 76.3466 147.911 76.4032 147.772 76.5166C147.634 76.6278 147.541 76.7782 147.493 76.9678L147.238 77.96Z" fill="#4E4E4E" />
</svg>