<svg width="277" height="31" viewBox="0 0 277 31" fill="none" xmlns="http://www.w3.org/2000/svg">
<path d="M20.498 1.49076V18.8529L14.1164 29.6698C13.677 30.4529 12.8681 30.9548 11.9742 31H6.4116C5.59261 31 5.2181 30.4127 5.59261 29.6698L11.9343 18.8529H1.48303C0.664164 18.8529 0 18.1854 0 17.3622V1.49076C0 0.667562 0.664164 0 1.48303 0H19.015C19.8339 0 20.498 0.667562 20.498 1.49076Z" fill="#B00004"/>
<path d="M47.4375 1.49076V18.8529L41.0609 29.6698C40.6165 30.4529 39.8075 30.9548 38.9137 31H33.356C32.5321 31 32.1626 30.4127 32.5321 29.6698L38.8787 18.8529H28.4225C27.6036 18.8529 26.9395 18.1854 26.9395 17.3622V1.49076C26.9395 0.667562 27.6036 0 28.4225 0H45.9544C46.7733 0 47.4375 0.667562 47.4375 1.49076Z" fill="#B00004"/>
<line x1="47.6484" y1="9" x2="276.648" y2="8.99998" stroke="#B00004" stroke-width="2"/>
</svg>
