<svg width="21" height="21" viewBox="0 0 21 21" fill="none" xmlns="http://www.w3.org/2000/svg">
  <path d="M19.3667 21L12.0167 13.65C11.4333 14.1167 10.7625 14.4861 10.0042 14.7583C9.24583 15.0306 8.43889 15.1667 7.58333 15.1667C5.46389 15.1667 3.67014 14.4326 2.20208 12.9646C0.734028 11.4965 0 9.70278 0 7.58333C0 5.46389 0.734028 3.67014 2.20208 2.20208C3.67014 0.734028 5.46389 0 7.58333 0C9.70278 0 11.4965 0.734028 12.9646 2.20208C14.4326 3.67014 15.1667 5.46389 15.1667 7.58333C15.1667 8.43889 15.0306 9.24583 14.7583 10.0042C14.4861 10.7625 14.1167 11.4333 13.65 12.0167L21 19.3667L19.3667 21ZM7.58333 12.8333C9.04167 12.8333 10.2813 12.3229 11.3021 11.3021C12.3229 10.2813 12.8333 9.04167 12.8333 7.58333C12.8333 6.125 12.3229 4.88542 11.3021 3.86458C10.2813 2.84375 9.04167 2.33333 7.58333 2.33333C6.125 2.33333 4.88542 2.84375 3.86458 3.86458C2.84375 4.88542 2.33333 6.125 2.33333 7.58333C2.33333 9.04167 2.84375 10.2813 3.86458 11.3021C4.88542 12.3229 6.125 12.8333 7.58333 12.8333Z" fill="white" />
</svg>