<svg width="22" height="22" viewBox="0 0 22 22" fill="none" xmlns="http://www.w3.org/2000/svg">
  <path d="M11 0C4.93268 0 0 4.93268 0 11C0 17.0673 4.93268 22 11 22C17.0673 22 22 17.0673 22 11C22 4.93268 17.0673 0 11 0ZM11 19.8C6.14961 19.8 2.2 15.8504 2.2 11C2.2 6.14961 6.14961 2.2 11 2.2C15.8504 2.2 19.8 6.14961 19.8 11C19.8 15.8504 15.8504 19.8 11 19.8Z" fill="#575757" />
  <path d="M12.1 10.411V5.5C12.1 4.8937 11.6063 4.4 11 4.4C10.3937 4.4 9.9 4.8937 9.9 5.5V11C9.9 11.3681 10.0819 11.7102 10.3894 11.9138L13.6894 14.1138C13.8756 14.2394 14.0878 14.3 14.3 14.3C14.6551 14.3 15.0059 14.1268 15.2181 13.8106C15.5559 13.3039 15.4173 12.624 14.915 12.2862L12.1 10.411Z" fill="#575757" />
</svg>