<svg width="12" height="12" viewBox="0 0 12 12" fill="none" xmlns="http://www.w3.org/2000/svg">
  <path d="M5.99977 7.84841C7.02007 7.84841 7.84719 7.02129 7.84719 6.00099C7.84719 4.98068 7.02007 4.15356 5.99977 4.15356C4.97946 4.15356 4.15234 4.98068 4.15234 6.00099C4.15234 7.02129 4.97946 7.84841 5.99977 7.84841Z" fill="#A6A6A6" />
  <path d="M11.8159 5.48931C10.3959 3.77329 8.24628 2.12146 6.00002 2.12146C3.75333 2.12146 1.60323 3.77444 0.184107 5.48931C-0.0613691 5.78582 -0.0613691 6.21627 0.184107 6.51278C0.540891 6.94392 1.28887 7.77619 2.28786 8.50338C4.80379 10.3349 7.19071 10.339 9.71219 8.50338C10.7112 7.77619 11.4592 6.94392 11.8159 6.51278C12.0607 6.21685 12.062 5.78679 11.8159 5.48931ZM6.00002 3.41466C7.42623 3.41466 8.58642 4.57484 8.58642 6.00105C8.58642 7.42726 7.42623 8.58744 6.00002 8.58744C4.57381 8.58744 3.41363 7.42726 3.41363 6.00105C3.41363 4.57484 4.57381 3.41466 6.00002 3.41466Z" fill="#A6A6A6" />
</svg>