<svg width="16" height="20" viewBox="0 0 16 20" fill="none" xmlns="http://www.w3.org/2000/svg">
  <path d="M15.2 18.2609H13.6V0.869565C13.6 0.638942 13.5157 0.417765 13.3657 0.25469C13.2157 0.0916148 13.0122 0 12.8 0H3.2C2.98783 0 2.78434 0.0916148 2.63431 0.25469C2.48429 0.417765 2.4 0.638942 2.4 0.869565V18.2609H0.8C0.587827 18.2609 0.384344 18.3525 0.234315 18.5156C0.0842856 18.6786 0 18.8998 0 19.1304C0 19.3611 0.0842856 19.5822 0.234315 19.7453C0.384344 19.9084 0.587827 20 0.8 20H15.2C15.4122 20 15.6157 19.9084 15.7657 19.7453C15.9157 19.5822 16 19.3611 16 19.1304C16 18.8998 15.9157 18.6786 15.7657 18.5156C15.6157 18.3525 15.4122 18.2609 15.2 18.2609ZM4.8 8.69565H6.4C6.61217 8.69565 6.81566 8.78727 6.96569 8.95034C7.11571 9.11342 7.2 9.33459 7.2 9.56522C7.2 9.79584 7.11571 10.017 6.96569 10.1801C6.81566 10.3432 6.61217 10.4348 6.4 10.4348H4.8C4.58783 10.4348 4.38434 10.3432 4.23431 10.1801C4.08429 10.017 4 9.79584 4 9.56522C4 9.33459 4.08429 9.11342 4.23431 8.95034C4.38434 8.78727 4.58783 8.69565 4.8 8.69565Z" fill="#A6A6A6" />
</svg>