<svg width="20" height="22" viewBox="0 0 20 22" fill="none" xmlns="http://www.w3.org/2000/svg">
  <path d="M4.66667 14.2227C5.03486 14.2227 5.33333 13.9341 5.33333 13.5781C5.33333 13.2222 5.03486 12.9336 4.66667 12.9336C4.29848 12.9336 4 13.2222 4 13.5781C4 13.9341 4.29848 14.2227 4.66667 14.2227Z" fill="#A6A6A6" />
  <path d="M4.66667 22C5.82031 22 9.33333 21.957 9.33333 18.7344V10.1717C8.29982 9.89944 7.07147 9.71094 5.33333 9.71094C3.86329 9.71094 2.66667 8.55469 2.66667 7.13281C2.66667 5.71093 3.86329 4.55469 5.33333 4.55469C6.99267 4.55469 8.26293 4.70852 9.33333 4.93689V3.26562C9.33333 0.0429688 5.82031 0 4.66667 0C3.51302 0 0 0.0429688 0 3.26562V18.7344C0 21.957 3.51302 22 4.66667 22ZM4.66667 11.6445C5.76951 11.6445 6.66667 12.5119 6.66667 13.5781C6.66667 14.4173 6.10764 15.126 5.33333 15.393V17.4453C5.33333 17.8016 5.03516 18.0898 4.66667 18.0898C4.29818 18.0898 4 17.8016 4 17.4453V15.393C3.22569 15.126 2.66667 14.4173 2.66667 13.5781C2.66667 12.5119 3.56382 11.6445 4.66667 11.6445Z" fill="#A6A6A6" />
  <path d="M4 7.13281C4 7.84343 4.59764 8.42188 5.33333 8.42188C8.66929 8.42188 10.362 9.07711 12 9.71094C13.7148 10.3737 15.3333 11 18.6667 11C19.4024 11 20 10.4216 20 9.71094C20 9.00032 19.4024 8.42188 18.6667 8.42188C15.3307 8.42188 13.638 7.76664 12 7.13281C10.2852 6.47002 8.66667 5.84375 5.33333 5.84375C4.59764 5.84375 4 6.4222 4 7.13281Z" fill="#A6A6A6" />
</svg>