<svg width="22" height="18" viewBox="0 0 22 18" fill="none" xmlns="http://www.w3.org/2000/svg">
  <path d="M18.4356 5.79583L17.8751 6.35846C16.9776 3.88256 15.0708 1.87061 12.6809 0.874206L13.0975 0.457611C13.7128 -0.157705 14.6979 -0.147347 15.2984 0.457611L18.4357 3.59482C19.041 4.19587 19.0504 5.18097 18.4356 5.79583Z" fill="#B00004" />
  <path d="M8.60877 6.21741C7.02642 6.21741 5.73913 7.50462 5.73913 9.08682C5.73913 10.6692 7.02642 11.9565 8.60877 11.9565C10.191 11.9565 11.4783 10.6692 11.4783 9.08682C11.4783 7.50465 10.191 6.21741 8.60877 6.21741Z" fill="#B00004" />
  <path d="M8.926 0.484212C4.04265 0.305063 0 4.2104 0 9.0855C0 13.8331 3.8626 17.6957 8.60797 17.6957H15.4125C16.4065 17.6957 17.2137 16.8885 17.2137 15.8945V9.28124C17.2137 4.59589 13.4957 0.648761 8.926 0.484212ZM8.60779 14.0728C5.85792 14.0728 3.6205 11.8355 3.6205 9.08562C3.6205 6.33596 5.85792 4.09888 8.60779 4.09888C11.3577 4.09888 13.5949 6.33596 13.5949 9.08562C13.5949 11.8355 11.3577 14.0728 8.60779 14.0728Z" fill="#B00004" />
  <path d="M22 12.3859V16.6676C22 16.7802 21.9543 16.8929 21.8733 16.9704C21.7961 17.0477 21.6887 17.0971 21.5705 17.0971H18.3904C18.4226 16.9382 18.4376 16.7771 18.4376 16.6097V13.5541H21.1411V12.386C21.1411 12.1498 21.3322 11.9565 21.5705 11.9565C21.8067 11.9565 22 12.1497 22 12.3859Z" fill="#B00004" />
</svg>