<svg width="20" height="20" viewBox="0 0 20 20" fill="none" xmlns="http://www.w3.org/2000/svg">
  <path d="M19 20C19.5523 20 20 19.5523 20 19C20 18.4477 19.5523 18 19 18V2.00001C19 0.895433 18.1046 0 17 0H11V20H19ZM14 8.00001C14.5523 8.00001 15 8.44771 15 8.99999V11C15 11.5523 14.5523 12 14 12C13.4477 12 13 11.5523 13 11V8.99999C13 8.44771 13.4477 8.00001 14 8.00001Z" fill="#A6A6A6" />
  <path d="M9 0H3C1.89542 0 1.00001 0.895433 1.00001 2.00001V18C0.447718 18 0 18.4477 0 19C0 19.5523 0.447718 20 1.00001 20H9V0ZM7.00001 8.99999C7.00001 8.44771 6.55229 8.00001 6 8.00001C5.44771 8.00001 4.99999 8.44771 4.99999 8.99999V11C4.99999 11.5523 5.44771 12 6 12C6.55229 12 7.00001 11.5523 7.00001 11V8.99999Z" fill="#A6A6A6" />
</svg>