<svg width="20" height="36" viewBox="0 0 20 36" fill="none" xmlns="http://www.w3.org/2000/svg">
  <path fill-rule="evenodd" clip-rule="evenodd" d="M19 1H1V35H19V1ZM0 0V36H20V0H0Z" fill="black" />
  <path fill-rule="evenodd" clip-rule="evenodd" d="M8 4H4V16H8V4ZM3 3V17H9V3H3Z" fill="black" />
  <path fill-rule="evenodd" clip-rule="evenodd" d="M8 20H4V32H8V20ZM3 19V33H9V19H3Z" fill="black" />
  <path fill-rule="evenodd" clip-rule="evenodd" d="M16 4H12V16H16V4ZM11 3V17H17V3H11Z" fill="black" />
  <path fill-rule="evenodd" clip-rule="evenodd" d="M16 20H12V32H16V20ZM11 19V33H17V19H11Z" fill="black" />
</svg>