<svg width="39" height="52" viewBox="0 0 39 52" fill="none" xmlns="http://www.w3.org/2000/svg">
  <path d="M20.1484 0.5C22.9804 0.500011 25.498 0.799418 27.6953 1.40625H27.6943C29.915 1.99337 31.7901 2.92115 33.3047 4.2002C34.8433 5.48238 36.0047 7.11496 36.7891 9.08594L36.9316 9.45605C37.6208 11.3274 37.958 13.5061 37.958 15.9814C37.958 17.7582 37.6412 19.4458 37.0039 21.0391L37.0029 21.041C36.3744 22.5913 35.5464 24.0557 34.5225 25.4355C33.5224 26.8106 32.3674 28.1005 31.0586 29.3057L31.0596 29.3066C29.7841 30.4998 28.4774 31.6319 27.1396 32.7021L27.1357 32.7051C25.8025 33.7512 24.4882 34.7252 23.1943 35.6289C21.934 36.5233 20.8087 37.3665 19.8164 38.1562H19.8154C18.8491 38.9212 18.0744 39.6284 17.4854 40.2764C17.1295 40.6678 16.913 41.0112 16.7988 41.3086H36.1201V51.5H0.5V44.1982C0.500025 41.807 0.811905 39.6683 1.44531 37.7891C2.07105 35.9327 2.8867 34.2574 3.89453 32.7666L3.89746 32.7627C4.91956 31.2817 6.07802 29.9548 7.37402 28.7842L7.37695 28.7822C8.67243 27.6307 9.97957 26.5506 11.2969 25.542L11.2998 25.5391C12.6294 24.5367 13.9286 23.5751 15.1973 22.6543C16.4644 21.729 17.5767 20.7773 18.5352 19.7988V19.7979C19.5038 18.8094 20.2802 17.7569 20.8682 16.6406C21.4405 15.5342 21.7314 14.2865 21.7314 12.8877V9.89453H16.7266V18.9023H0.5V18.4023C0.5 15.2675 0.809264 12.5645 1.4375 10.3027C2.07133 8.02094 3.15599 6.14 4.70117 4.68066C6.15002 3.2932 8.03561 2.27921 10.3359 1.62305L10.8018 1.49609C13.3281 0.828372 16.4475 0.5 20.1484 0.5Z" stroke="#B00004" />
</svg>