<svg width="39" height="52" viewBox="0 0 39 52" fill="none" xmlns="http://www.w3.org/2000/svg">
  <path d="M16.3535 42.2812H21.7793V29.2051H13.0225V21.5098H21.7793V9.77832H16.3535V19.7305H0.5V19.2305C0.500012 16.1995 0.72029 13.5268 1.16602 11.2168C1.61728 8.85789 2.50471 6.87326 3.84277 5.2832L4.10254 4.9834C5.42974 3.51353 7.23237 2.42127 9.48242 1.69043C11.8836 0.890618 14.9901 0.500014 18.7822 0.5C21.4319 0.5 23.7452 0.690493 25.7168 1.07617C27.6826 1.44095 29.3743 1.97132 30.7812 2.6748H30.7803C32.1976 3.37346 33.3573 4.22429 34.2441 5.23535L34.5703 5.60742C35.311 6.4894 35.9016 7.46047 36.3398 8.51953H36.3389C36.8547 9.69817 37.1946 10.9654 37.3594 12.3193L37.4229 12.8232C37.5626 14.0054 37.6328 15.2251 37.6328 16.4814C37.6328 17.6758 37.4883 18.7453 37.1904 19.6816C36.9208 20.5913 36.5657 21.3993 36.1201 22.0996C35.6828 22.7868 35.1961 23.3687 34.6602 23.8418L34.6611 23.8428C34.1691 24.2938 33.7007 24.6702 33.2559 24.9668C33.0341 25.1146 32.823 25.2436 32.624 25.3535C32.8177 25.4556 33.0237 25.5744 33.2412 25.709C33.6907 25.9872 34.1617 26.3548 34.6533 26.8047C35.1923 27.279 35.6807 27.8652 36.1201 28.5557C36.5665 29.2571 36.9212 30.0756 37.1904 31.0039L37.2949 31.3623C37.5221 32.2131 37.6328 33.1719 37.6328 34.2334C37.6328 35.7058 37.5409 37.1493 37.3594 38.5635L37.3604 38.5645C37.1963 39.9995 36.8568 41.3657 36.3428 42.6621C35.8453 43.9473 35.1523 45.139 34.2637 46.2344L34.2627 46.2334C33.3791 47.3272 32.2211 48.2624 30.8008 49.0449C29.3929 49.8316 27.7007 50.4352 25.7324 50.8613C23.7558 51.2893 21.4369 51.5 18.7822 51.5C14.9859 51.5 11.8736 51.0794 9.46777 50.2158L9.46484 50.2139C7.06219 49.3308 5.17484 48.0256 3.83203 46.2842C2.50032 44.5571 1.61617 42.4475 1.16602 39.9717L1.16504 39.9707C0.720241 37.5039 0.50001 34.674 0.5 31.4844V30.9834L1.00098 30.9844L15.8545 31.0137L16.3535 31.0146V42.2812Z" stroke="#B00004" />
</svg>