<svg width="40" height="52" viewBox="0 0 40 52" fill="none" xmlns="http://www.w3.org/2000/svg">
  <path d="M36.918 0.5V10.5322H19.3682L18.3506 17.6787C18.5587 17.5053 18.7841 17.3378 19.0273 17.1777L19.0371 17.1709C19.742 16.7304 20.695 16.3381 21.876 15.9854C23.1069 15.5966 24.6844 15.4112 26.5889 15.4111C28.7674 15.4111 30.6715 15.7879 32.2842 16.5615L32.5859 16.7109C34.0814 17.4782 35.323 18.5675 36.3066 19.9727C37.3517 21.4657 38.1085 23.3041 38.5889 25.4736L38.7646 26.2939C39.1474 28.2461 39.3369 30.4507 39.3369 32.9043C39.3369 34.9374 39.2431 36.8111 39.0576 38.5244L39.0586 38.5254C38.8917 40.2359 38.5468 41.7908 38.0186 43.1855L38.0176 43.1846C37.5079 44.5639 36.7949 45.7808 35.875 46.8291C34.9653 47.8889 33.774 48.7638 32.3164 49.4609L32.3135 49.4619C30.8732 50.1397 29.1422 50.6407 27.1299 50.9727L27.1289 50.9717C25.114 51.3244 22.7487 51.5 20.0371 51.5C16.0318 51.5 12.7514 51.1105 10.2148 50.3145C7.69219 49.543 5.69351 48.4473 4.25195 47.0059L4.24609 47C2.83573 45.5468 1.88465 43.8136 1.39453 41.8105C0.914056 39.8468 0.675781 37.6833 0.675781 35.3232V34.8232H16.8936V42.0801H23.1191V24.6777H17.4229L16.8594 29.8359L16.8105 30.2812H0.587891L0.682617 29.7012L5.36719 0.919922L5.43555 0.5H36.918Z" stroke="#B00004" />
</svg>