<svg width="24" height="24" viewBox="0 0 24 24" fill="none" xmlns="http://www.w3.org/2000/svg">
  <path d="M12.2642 24C10.4658 24 8.81576 23.7191 7.31402 23.1574C5.81228 22.5957 4.51448 21.7984 3.42063 20.7656C2.32677 19.7327 1.4832 18.5096 0.889919 17.0963C0.29664 15.6648 0 14.0793 0 12.3398C0 9.8573 0.528389 7.69196 1.58517 5.84371C2.66049 3.97735 4.16223 2.53681 6.09038 1.52208C8.01854 0.507361 10.2711 0 12.8482 0C15.1101 0 17.0753 0.425821 18.7439 1.27746C20.4125 2.11099 21.701 3.29785 22.6095 4.83805C23.5365 6.36014 24 8.16308 24 10.2469C24 11.8052 23.7683 13.1552 23.3048 14.2967C22.8413 15.4383 22.1924 16.3262 21.3581 16.9604C20.5423 17.5764 19.5782 17.8845 18.4658 17.8845C16.6118 17.8845 15.3696 17.1416 14.7393 15.6557C14.2572 16.3986 13.6732 16.9604 12.9873 17.3409C12.3198 17.7033 11.5968 17.8845 10.8181 17.8845C9.26072 17.8845 8.05562 17.4134 7.20278 16.4711C6.36848 15.5108 5.95133 14.2242 5.95133 12.6116C5.95133 11.2888 6.20162 10.12 6.7022 9.10532C7.20278 8.07248 7.89803 7.26614 8.78795 6.6863C9.67787 6.08834 10.6976 5.78935 11.847 5.78935C13.3488 5.78935 14.4148 6.36014 15.0452 7.5017L15.3511 6.08834H18.8273L17.7428 12.0408C17.6871 12.4032 17.6408 12.7293 17.6037 13.0193C17.5666 13.2911 17.5481 13.5357 17.5481 13.7531C17.5481 14.2786 17.6408 14.6501 17.8262 14.8675C18.0301 15.0849 18.3268 15.1937 18.7161 15.1937C19.4206 15.1937 19.9954 14.7407 20.4403 13.8347C20.9038 12.9105 21.1356 11.7146 21.1356 10.2469C21.1356 7.80068 20.4125 5.94337 18.9664 4.67497C17.5388 3.38845 15.4994 2.74519 12.8482 2.74519C10.883 2.74519 9.17729 3.13477 7.73117 3.91393C6.28505 4.69309 5.16338 5.79841 4.36616 7.2299C3.58749 8.66138 3.19815 10.3647 3.19815 12.3398C3.19815 14.188 3.56895 15.7826 4.31054 17.1234C5.05214 18.4462 6.09965 19.4609 7.45307 20.1676C8.82503 20.8924 10.4287 21.2548 12.2642 21.2548C14.8042 21.2548 16.927 20.6387 18.6327 19.4066L19.9676 21.7984C19.0962 22.5051 17.993 23.0487 16.6582 23.4292C15.3233 23.8097 13.8586 24 12.2642 24ZM11.5968 15.0034C12.4496 15.0034 13.1356 14.6319 13.6547 13.889C14.1738 13.128 14.4334 12.1042 14.4334 10.8177C14.4334 9.38618 13.8123 8.67044 12.5701 8.67044C11.6987 8.67044 10.9942 9.03284 10.4565 9.75764C9.93743 10.4643 9.67787 11.3975 9.67787 12.5572C9.67787 14.188 10.3175 15.0034 11.5968 15.0034Z" fill="#B00004" />
</svg>