<svg width="30" height="30" viewBox="0 0 30 30" fill="none" xmlns="http://www.w3.org/2000/svg">
  <path d="M15 30C23.2843 30 30 23.2843 30 15C30 6.71573 23.2843 0 15 0C6.71573 0 0 6.71573 0 15C0 23.2843 6.71573 30 15 30Z" fill="black" />
  <path d="M15.6453 9.86973L15.1065 9.86578L14.6599 9.86065C11.6543 9.82471 9.56318 9.79983 9.27122 13.1872H5.31359C5.31359 7.78646 10.2114 7.05859 15.0026 7.05859C19.7936 7.05859 24.6917 7.78646 24.6917 13.1872H20.7032C20.4419 9.89659 18.6016 9.88632 15.6453 9.86973Z" fill="white" />
  <path d="M7.44934 14.9233H7.13093C6.10282 14.9269 5.29395 14.9296 5.29395 13.6299H9.28934C9.28934 13.7152 9.28554 13.7946 9.27848 13.8688C9.27201 13.9368 9.26278 14.0003 9.25123 14.0604C9.08131 14.9288 8.34959 14.9265 7.44934 14.9233Z" fill="white" />
  <path d="M20.6915 13.6299C20.6915 13.7334 20.6972 13.8278 20.7083 13.9142C20.715 13.9656 20.7235 14.0142 20.7337 14.0604C20.9127 14.8601 21.6424 14.8577 22.5382 14.855H22.8608C23.8934 14.8585 24.7057 14.8609 24.7057 13.6299H20.6915Z" fill="white" />
  <path d="M16.6175 17.5733C16.6175 18.4666 15.8932 19.1909 14.9998 19.1909C14.1064 19.1909 13.3822 18.4666 13.3822 17.5733C13.3822 16.68 14.1064 15.9557 14.9998 15.9557C15.8932 15.9557 16.6175 16.68 16.6175 17.5733Z" fill="white" />
  <path fill-rule="evenodd" clip-rule="evenodd" d="M18.1297 11.8977C18.4891 11.8977 18.7802 11.9131 18.7802 12.156V13.173C19.7267 14.1184 22.822 18.1412 22.9334 18.614V21.8816C22.9334 22.1818 22.6793 22.4262 22.3671 22.4262H7.26447C7.15665 22.4262 7.05579 22.397 6.96989 22.3465C6.88474 22.2963 6.81434 22.2252 6.76655 22.1407C6.72291 22.0637 6.69813 21.9752 6.69813 21.8816L6.6966 18.6305C6.80911 18.1432 9.90514 14.1188 10.8513 13.1733V12.156C10.8513 11.9131 11.1424 11.8977 11.5015 11.8977H12.089C12.4481 11.8977 12.7392 11.9131 12.7392 12.156V12.9869H16.8924V12.156C16.8924 12.1047 16.9053 12.0636 16.9292 12.0304C16.9532 11.9972 16.9883 11.9724 17.0324 11.9534C17.0985 11.9254 17.1848 11.9111 17.2839 11.9044C17.3632 11.8989 17.4506 11.8977 17.5426 11.8977H18.1297ZM17.4263 17.5733C17.4263 18.9133 16.3399 19.9998 14.9998 19.9998C13.6597 19.9998 12.5734 18.9133 12.5734 17.5733C12.5734 16.2333 13.6597 15.1468 14.9998 15.1468C16.3399 15.1468 17.4263 16.2333 17.4263 17.5733Z" fill="white" />
</svg>