<svg width="36" height="36" viewBox="0 0 36 36" fill="none" xmlns="http://www.w3.org/2000/svg">
  <path d="M35.056 26.4203L30.0215 21.3964C28.2235 19.6022 25.1668 20.32 24.4476 22.6524C23.9082 24.2673 22.1102 25.1644 20.492 24.8055C16.8959 23.9084 12.0412 19.2433 11.1422 15.4754C10.6028 13.8605 11.6816 12.0663 13.2998 11.5281C15.6373 10.8104 16.3565 7.76013 14.5585 5.96588L9.52399 0.941982C8.08556 -0.313994 5.92793 -0.313994 4.66931 0.941982L1.25306 4.35106C-2.16319 7.93956 1.61266 17.4491 10.0634 25.8821C18.5141 34.315 28.0437 38.2625 31.6397 34.6739L35.056 31.2648C36.3147 29.8294 36.3147 27.6763 35.056 26.4203Z" fill="white" />
</svg>