<svg width="26" height="38" viewBox="0 0 26 38" fill="none" xmlns="http://www.w3.org/2000/svg">
  <path d="M13 0C5.83176 0 0 6.17367 0 13.7621C0 23.1796 11.6337 37.005 12.129 37.5889C12.5943 38.1375 13.4066 38.1365 13.871 37.5889C14.3663 37.005 26 23.1796 26 13.7621C25.9999 6.17367 20.1682 0 13 0ZM13 20.6862C9.39348 20.6862 6.45944 17.5801 6.45944 13.7621C6.45944 9.94414 9.39355 6.83808 13 6.83808C16.6064 6.83808 19.5405 9.94421 19.5405 13.7622C19.5405 17.5801 16.6064 20.6862 13 20.6862Z" fill="white" />
</svg>