<svg width="36" height="36" viewBox="0 0 36 36" fill="none" xmlns="http://www.w3.org/2000/svg">
  <path d="M18.3963 36C15.6987 36 13.2236 35.5787 10.971 34.7361C8.71842 33.8935 6.77173 32.6976 5.13094 31.1484C3.49015 29.5991 2.2248 27.7644 1.33488 25.6444C0.444959 23.4972 0 21.1189 0 18.5096C0 14.786 0.792584 11.5379 2.37775 8.76557C3.99073 5.96602 6.24334 3.80521 9.13557 2.28313C12.0278 0.761042 15.4067 0 19.2723 0C22.6651 0 25.613 0.638731 28.1159 1.91619C30.6188 3.16648 32.5516 4.94677 33.9143 7.25708C35.3048 9.5402 36 12.2446 36 15.3703C36 17.7078 35.6524 19.7327 34.9571 21.4451C34.2619 23.1574 33.2885 24.4892 32.0371 25.4405C30.8134 26.3647 29.3673 26.8267 27.6987 26.8267C24.9177 26.8267 23.0545 25.7123 22.1089 23.4836C21.3859 24.598 20.5099 25.4405 19.4809 26.0113C18.4797 26.5549 17.3951 26.8267 16.2271 26.8267C13.8911 26.8267 12.0834 26.12 10.8042 24.7067C9.55272 23.2661 8.927 21.3364 8.927 18.9173C8.927 16.9332 9.30243 15.1801 10.0533 13.658C10.8042 12.1087 11.847 10.8992 13.1819 10.0294C14.5168 9.1325 16.0464 8.68403 17.7706 8.68403C20.0232 8.68403 21.6222 9.5402 22.5678 11.2525L23.0267 9.1325H28.241L26.6141 18.0612C26.5307 18.6048 26.4612 19.094 26.4056 19.5289C26.3499 19.9366 26.3221 20.3035 26.3221 20.6297C26.3221 21.4179 26.4612 21.9751 26.7393 22.3012C27.0452 22.6274 27.4902 22.7905 28.0742 22.7905C29.1309 22.7905 29.9931 22.111 30.6605 20.752C31.3557 19.3658 31.7034 17.5719 31.7034 15.3703C31.7034 11.701 30.6188 8.91506 28.4496 7.01246C26.3082 5.08267 23.2491 4.11778 19.2723 4.11778C16.3244 4.11778 13.7659 4.70215 11.5968 5.87089C9.42758 7.03964 7.74508 8.69762 6.54925 10.8448C5.38123 12.9921 4.79722 15.547 4.79722 18.5096C4.79722 21.282 5.35342 23.6738 6.46582 25.6852C7.57822 27.6693 9.14948 29.1914 11.1796 30.2514C13.2375 31.3386 15.6431 31.8822 18.3963 31.8822C22.2063 31.8822 25.3905 30.9581 27.949 29.1099L29.9513 32.6976C28.6443 33.7576 26.9896 34.573 24.9873 35.1438C22.9849 35.7146 20.788 36 18.3963 36ZM17.3951 22.5051C18.6744 22.5051 19.7034 21.9479 20.482 20.8335C21.2607 19.692 21.6501 18.1563 21.6501 16.2265C21.6501 14.0793 20.7184 13.0057 18.8552 13.0057C17.5481 13.0057 16.4913 13.5493 15.6848 14.6365C14.9061 15.6965 14.5168 17.0963 14.5168 18.8358C14.5168 21.282 15.4762 22.5051 17.3951 22.5051Z" fill="white" />
</svg>