<svg width="42" height="35" viewBox="0 0 42 35" fill="none" xmlns="http://www.w3.org/2000/svg">
  <path fill-rule="evenodd" clip-rule="evenodd" d="M21.5408 0.00924588C18.1633 -0.1041 14.751 0.824481 11.8049 2.80616C8.49601 5.03423 6.18361 8.32444 5.1185 12.0026C4.82437 11.9664 4.47215 11.9824 4.05392 12.1016C2.49243 12.548 1.31801 13.8374 0.789944 14.973C0.105042 16.4529 -0.18381 18.4101 0.120884 20.4306C0.423466 22.4447 1.26784 24.105 2.32398 25.1358C3.38328 26.167 4.57935 26.5023 5.76749 26.2506C7.53651 25.8701 8.41363 25.5854 8.16597 23.9246L6.96673 15.8739C7.20859 11.5167 9.44706 7.41501 13.191 4.89268C18.2024 1.51945 24.7726 1.7355 29.5526 5.43333C32.8779 8.00249 34.8085 11.852 35.0313 15.893L34.1928 21.5247C32.3223 26.6827 27.6854 30.2555 22.3197 30.7626H18.7468C17.8248 30.7626 17.0824 31.5108 17.0824 32.4388V33.3232C17.0824 34.2518 17.8248 35 18.7468 35H23.2518C24.1732 35 24.9125 34.2518 24.9125 33.3232V32.8608C28.9586 31.8657 32.4903 29.3599 34.79 25.8653L36.2332 26.2511C37.4076 26.5582 38.618 26.167 39.6767 25.1363C40.7329 24.105 41.5767 22.4453 41.8798 20.4311C42.1856 18.4106 41.8883 16.4566 41.2113 14.9735C40.5317 13.4904 39.5194 12.5486 38.3507 12.2106C37.8612 12.0686 37.33 12.0164 36.8743 12.0026C35.9111 8.67671 33.9282 5.65204 31.0703 3.44367C28.2605 1.27095 24.9183 0.120995 21.5408 0.00924588Z" fill="white" />
  <path fill-rule="evenodd" clip-rule="evenodd" d="M26.8136 14.493C28.0044 14.493 28.9697 15.4657 28.9723 16.6689C28.9697 17.8689 28.0044 18.8443 26.8136 18.8443C25.6196 18.8443 24.6517 17.8689 24.6517 16.6689C24.6517 15.4663 25.6201 14.493 26.8136 14.493ZM20.9996 14.493C22.193 14.493 23.1583 15.4657 23.1583 16.6689C23.1583 17.8689 22.193 18.8443 20.9996 18.8443C19.8051 18.8443 18.8398 17.8689 18.8398 16.6689C18.8398 15.4663 19.8051 14.493 20.9996 14.493ZM15.1877 14.493C16.3785 14.493 17.3464 15.4657 17.3464 16.6689C17.3464 17.8689 16.3785 18.8443 15.1877 18.8443C13.9942 18.8443 13.0284 17.8689 13.0284 16.6689C13.0284 15.4663 13.9942 14.493 15.1877 14.493ZM20.9996 5.14757C14.668 5.14757 9.56587 10.1199 9.56587 16.6689C9.56587 19.8144 10.7461 22.5943 12.6688 24.6339L11.9865 27.7161C11.7616 28.7303 12.4597 29.4126 13.3643 28.9049L16.351 27.226C17.7704 27.847 19.3404 28.1902 20.9996 28.1902C27.3332 28.1902 32.4322 23.2211 32.4322 16.6689C32.4322 10.1199 27.3332 5.14757 20.9996 5.14757Z" fill="white" />
</svg>