<svg width="40" height="42" viewBox="0 0 40 42" fill="none" xmlns="http://www.w3.org/2000/svg">
  <path d="M35.7881 15.3904L15.7501 34.9713C14.8443 35.856 13.3762 35.856 12.4708 34.9713L0.679047 23.4488C-0.226349 22.5637 -0.226349 21.1291 0.679047 20.2444L20.7171 0.663542C21.6228 -0.221181 23.091 -0.221181 23.9963 0.663542L35.7881 12.1861C36.6939 13.0708 36.6939 14.5057 35.7881 15.3904Z" fill="#E1E1E1" />
  <path d="M35.788 12.1867L34.3167 10.7485C35.123 11.5365 35.0423 12.8926 34.1369 13.7773L14.0986 33.3582C13.1932 34.2432 11.8054 34.3217 10.999 33.5337L12.4707 34.9719C13.3761 35.8566 14.8442 35.8566 15.75 34.9719L35.788 15.391C36.6938 14.5063 36.6938 13.0714 35.788 12.1867Z" fill="#BDBDBD" />
  <path d="M4.53212 22.6443C4.37078 22.6443 4.20977 22.5841 4.0868 22.4639C3.84086 22.2236 3.84086 21.8343 4.0868 21.594L13.9019 12.003C14.1478 11.7627 14.5466 11.7627 14.7922 12.003C15.0381 12.2433 15.0381 12.633 14.7922 12.873L4.97711 22.4643C4.85414 22.5841 4.69313 22.6443 4.53212 22.6443Z" fill="#BDBDBD" />
  <path d="M7.65126 25.6912C7.48992 25.6912 7.32891 25.631 7.20594 25.5108C6.96 25.2705 6.96 24.8812 7.20594 24.6408L17.021 15.0499C17.2669 14.8095 17.6657 14.8095 17.9113 15.0499C18.1573 15.2902 18.1573 15.6799 17.9113 15.9199L8.09625 25.5108C7.97328 25.631 7.81227 25.6912 7.65126 25.6912Z" fill="#BDBDBD" />
  <path d="M20.3892 5.12823L18.4256 7.04668C17.6537 7.80098 17.6537 9.02376 18.4256 9.77807C19.1976 10.5324 20.4492 10.5324 21.2212 9.77807L23.1844 7.85962C23.9564 7.10532 23.9564 5.88253 23.1844 5.12823C22.4125 4.37392 21.1608 4.37392 20.3892 5.12823Z" fill="white" />
  <path d="M37.6806 21.1758H9.34218C8.06164 21.1758 7.02344 22.1903 7.02344 23.4416V39.737C7.02344 40.9883 8.06164 42.0028 9.34218 42.0028H37.6806C38.9615 42.0028 39.9994 40.9883 39.9994 39.737V23.4416C39.9997 22.1903 38.9615 21.1758 37.6806 21.1758Z" fill="#B00004" />
  <path d="M37.6799 21.1758H35.6045C36.885 21.1758 37.9232 22.1903 37.9232 23.4416V39.737C37.9232 40.9883 36.885 42.0028 35.6045 42.0028H37.6799C38.9608 42.0028 39.9987 40.9883 39.9987 39.737V23.4416C39.999 22.1903 38.9608 21.1758 37.6799 21.1758Z" fill="#6B0002" />
  <path d="M7.02344 26.2925H39.9997V30.2072H7.02344V26.2925Z" fill="#E56164" />
  <path d="M37.9238 26.2925H39.9993V30.2072H37.9238V26.2925Z" fill="black" />
  <path d="M31.8955 36.4635V38.878C31.8955 39.0648 32.0503 39.2161 32.2415 39.2161H36.1716C36.3628 39.2161 36.5176 39.0648 36.5176 38.878V36.4635C36.5176 36.2767 36.3628 36.1255 36.1716 36.1255H32.2415C32.0503 36.1255 31.8955 36.2767 31.8955 36.4635Z" fill="#E56164" />
  <path d="M20.0449 36.4635V38.878C20.0449 39.0648 20.2 39.2161 20.3909 39.2161H28.7037C28.8949 39.2161 29.0497 39.0648 29.0497 38.878V36.4635C29.0497 36.2767 28.8949 36.1255 28.7037 36.1255H20.3909C20.2 36.1255 20.0449 36.2767 20.0449 36.4635Z" fill="#E56164" />
  <path d="M16.6547 39.8311H12.5134C12.1655 39.8311 11.8838 39.5555 11.8838 39.2158C11.8838 38.8758 12.1655 38.6006 12.5134 38.6006H16.6547C17.0027 38.6006 17.2844 38.8758 17.2844 39.2158C17.2844 39.5555 17.0027 39.8311 16.6547 39.8311Z" fill="#6B0002" />
</svg>