<svg width="42" height="42" viewBox="0 0 42 42" fill="none" xmlns="http://www.w3.org/2000/svg">

    <path d="M17.8152 42L17.1852 41.6269C17.0268 41.5331 13.2605 39.2862 9.44313 35.6308C7.17973 33.4634 5.37086 31.248 4.06656 29.0461C2.39329 26.2213 1.54492 23.4047 1.54492 20.6745V6.47046L17.8152 0L34.0855 6.47046V20.6744C34.0855 22.1763 33.8268 23.7183 33.3164 25.2573L24.7599 36.9381C21.4681 39.8256 18.567 41.5547 18.4451 41.6268L17.8152 42Z" fill="#E56164" />
    <path d="M1.54492 19.6646V20.6746C1.54492 23.4048 2.39337 26.2214 4.06656 29.0462C5.37086 31.2481 7.17973 33.4635 9.44313 35.6309C13.2605 39.2864 17.0268 41.5332 17.1852 41.627L17.8152 42.0002L18.4451 41.6271C18.567 41.5549 21.4681 39.8259 24.7599 36.9384L33.3164 25.2575C33.8268 23.7185 34.0855 22.1766 34.0855 20.6746V19.6646H1.54492Z" fill="#B00004" />
    <path d="M17.8154 42V0L34.0858 6.47046V20.6744C34.0858 22.1763 33.827 23.7183 33.3167 25.2573L24.7602 36.9381C21.4684 39.8256 18.5672 41.5547 18.4453 41.6268L17.8154 42Z" fill="#B00004" />
    <path d="M17.8154 19.6646V42.0002L18.4453 41.6271C18.5672 41.5549 21.4684 39.8259 24.7602 36.9384L33.3167 25.2575C33.827 23.7185 34.0858 22.1766 34.0858 20.6746V19.6646H17.8154Z" fill="#6B0002" />
    <path d="M31.2424 41.9999C26.1623 41.9999 22.0293 37.8669 22.0293 32.7868C22.0293 27.7067 26.1623 23.5737 31.2424 23.5737C36.3225 23.5737 40.4555 27.7067 40.4555 32.7868C40.4555 37.8669 36.3225 41.9999 31.2424 41.9999Z" fill="#E1E1E1" />
    <path d="M30.161 36.7419L26.9941 33.575L28.7343 31.8349L30.161 33.2616L33.9125 29.5103L35.6526 31.2504L30.161 36.7419Z" fill="#3EA871" />
    <path d="M31.2422 41.9999V23.5737C36.3223 23.5737 40.4553 27.7067 40.4553 32.7868C40.4553 37.8669 36.3223 41.9999 31.2422 41.9999Z" fill="#BDBDBD" />
    <path d="M30.161 36.7419L26.9941 33.575L28.7343 31.8349L30.161 33.2616L33.9125 29.5103L35.6526 31.2504L30.161 36.7419Z" fill="#B00004" />
    <path d="M31.2422 35.6605L35.6524 31.2504L33.9123 29.5103L31.2422 32.1803V35.6605Z" fill="#B00004" />


</svg>